<?xml version="1.0" encoding="utf-8"?>
<!-- Generator: Adobe Illustrator 27.5.0, SVG Export Plug-In . SVG Version: 6.00 Build 0)  -->
<svg version="1.1" id="Capa_1" xmlns="http://www.w3.org/2000/svg" xmlns:xlink="http://www.w3.org/1999/xlink" x="0px" y="0px"
	 viewBox="0 0 1975 2279" style="enable-background:new 0 0 1975 2279;" xml:space="preserve">
<g>
	<path style="fill:#F7B8B2;" d="M1483.497,1743.238c-3.294-49.325-75.341-406.967-115.946-448.177
		c-36.501-37.044-162.768-77.034-187.937-84.746c0,0,0,0,0.001-0.001l-34.8-12.067c-0.054,0.08-0.115,0.159-0.168,0.239
		l-49.151-17.58c0,0-8.602-31.021-8.983-77.398c80.403-65.354,111.149-188.5,112.307-259.509
		c12.77-6.281,22.944-19.237,26.271-38.421c4.769-27.495-0.088-49.736-13.689-57.332c4.028-31.506,13.886-119.473,8.422-189.089
		c-8.525-108.661-51.26-189.722-159.539-226.47c-2.55-7.066-6.667-13.688-12.121-19.698
		c85.512-132.903-15.54-162.504-71.255-161.026c-89.953,2.387-185.45,80.552-94.392,157.647
		c-7.159,6.941-12.449,14.832-15.468,23.354c-86.216,30.684-167.675,102.749-173.151,226.193
		C690.86,627.583,706,719.25,712.108,752.842c-9.152,10.081-11.987,29.534-7.963,52.735c3.332,19.212,13.531,32.179,26.327,38.449
		c2.429,75.923,41.513,214.936,134.784,274.639c-1.718,43.326-14.458,71.465-14.458,71.465l-38.993,13.44
		c-1.641,0.561-19.069,6.508-39.843,13.549l-25.129,8.464c-0.008,0.003-98.938,28.269-139.542,69.477
		c-40.606,41.21-112.653,398.852-115.946,448.177c-0.829,12.412,9.498,26.092,25.899,39.4
		c-19.975,182.65-25.899,344.115-25.899,344.115h165l7.971-278.432c0.16,0.027,0.316,0.053,0.475,0.079
		c16.889,148.078,37.566,278.352,37.566,278.352h573.774c0,0,20.593-112.144,35.566-237.515l6.798,237.515h165.001
		c0,0-5.924-161.465-25.899-344.115C1473.998,1769.329,1484.326,1755.65,1483.497,1743.238z"/>
	<path style="fill:#F6B3B0;" d="M806.679,783.184c-18.419,0-35.399,5.37-49.242,14.369c0.36,2.827,0.68,5.615,1.006,8.405
		c0.352,3.028,0.685,6.035,0.992,9.012c0.341,3.311,0.667,6.6,0.946,9.837c0.353,4.062,0.623,8.016,0.868,11.944
		c0.115,1.845,0.282,3.757,0.371,5.57c0.058,1.169,0.156,2.304,0.224,3.465c0.062,1.058,0.133,2.108,0.204,3.159
		c0.88,13.129,2.357,25.74,4.307,37.913c0.673,4.193,1.388,8.34,2.19,12.412c0.692,3.515,1.466,6.949,2.254,10.371
		c0.533,2.315,1.056,4.638,1.598,6.943c0.192,0.819,0.357,1.665,0.568,2.467c0.242,0.921,0.537,1.789,0.803,2.685
		c0.632,2.13,1.275,4.248,1.907,6.378c9.601,3.419,20.04,5.354,31.004,5.354c46.375,0,83.97-33.642,83.97-75.141
		C890.649,816.826,853.053,783.184,806.679,783.184z"/>
	<path style="fill:#F5AFAE;" d="M806.679,790.461c-18.322,0-35.128,5.816-48.236,15.497c0.352,3.028,0.685,6.035,0.992,9.012
		c0.341,3.311,0.667,6.6,0.946,9.837c0.353,4.062,0.623,8.016,0.868,11.944c0.115,1.845,0.282,3.757,0.371,5.57
		c0.058,1.169,0.156,2.304,0.224,3.465c0.062,1.058,0.133,2.108,0.204,3.159c0.88,13.129,2.357,25.74,4.307,37.913
		c0.673,4.193,1.388,8.34,2.19,12.412c0.692,3.515,1.466,6.949,2.254,10.371c0.533,2.315,1.056,4.638,1.598,6.943
		c0.192,0.819,0.357,1.665,0.568,2.467c10.167,4.53,21.587,7.141,33.715,7.141c41.884,0,75.837-30.384,75.837-67.865
		C882.516,820.846,848.563,790.461,806.679,790.461z"/>
	<path style="fill:#F5AAAC;" d="M806.679,797.738c-18.389,0-35.044,6.584-47.245,17.232c0.341,3.311,0.667,6.6,0.946,9.837
		c0.353,4.062,0.623,8.016,0.868,11.944c0.115,1.845,0.282,3.757,0.371,5.57c0.058,1.169,0.156,2.304,0.224,3.465
		c0.062,1.058,0.133,2.108,0.204,3.159c0.88,13.129,2.357,25.74,4.307,37.913c0.673,4.193,1.388,8.34,2.19,12.412
		c0.692,3.515,1.466,6.949,2.254,10.371c10.413,5.843,22.685,9.275,35.88,9.275c37.392,0,67.705-27.128,67.705-60.588
		C874.384,824.865,844.07,797.738,806.679,797.738z"/>
	<path style="fill:#F4A6A9;" d="M806.679,805.014c-18.703,0-35.376,7.727-46.299,19.793c0.353,4.062,0.623,8.016,0.868,11.944
		c0.115,1.845,0.282,3.757,0.371,5.57c0.058,1.169,0.156,2.304,0.224,3.465c0.062,1.058,0.133,2.108,0.204,3.159
		c0.88,13.129,2.357,25.74,4.307,37.913c0.673,4.193,1.388,8.34,2.19,12.412c10.334,7.716,23.624,12.369,38.134,12.369
		c32.902,0,59.575-23.869,59.575-53.311C866.253,828.883,839.58,805.014,806.679,805.014z"/>
	<path style="fill:#F4A1A7;" d="M806.679,812.292c-19.695,0-36.787,9.913-45.43,24.459c0.115,1.845,0.282,3.757,0.371,5.57
		c0.058,1.169,0.156,2.304,0.224,3.465c0.062,1.058,0.133,2.108,0.204,3.159c0.88,13.129,2.357,25.74,4.307,37.913
		c9.424,10.65,23.967,17.504,40.324,17.504c28.412,0,51.442-20.61,51.442-46.034C858.12,832.902,835.09,812.292,806.679,812.292z"/>
	<path style="fill:#F6B3B0;" d="M1116.924,783.184c-46.376,0-83.97,33.642-83.97,75.144c0,13.954,4.327,26.973,11.732,38.171
		c0.28-0.109,0.592-0.212,0.862-0.322c1.567-0.636,3.353,0.12,3.988,1.687c0.564,1.391-0.009,2.908-1.231,3.687
		c15.2,19.286,40.24,31.918,68.618,31.918c15.858,0,30.634-4.006,43.286-10.843c0.43-1.64,0.811-3.32,1.217-4.981
		c0.143-0.583,0.288-1.163,0.428-1.749c0.286-1.195,0.598-2.369,0.873-3.572c0.866-3.78,1.668-7.613,2.425-11.483
		c0.001-0.009,0.004-0.018,0.006-0.027c0-0.001,0-0.002,0.001-0.003c0.953-4.877,1.841-9.808,2.626-14.82
		c0-0.005,0.002-0.01,0.003-0.015c0.002-0.013,0.003-0.027,0.005-0.041c1.145-7.316,2.095-14.783,2.884-22.368
		c0.022-0.213,0.05-0.422,0.072-0.636c0.523-5.09,0.862-10.311,1.236-15.507c0.191-2.644,0.475-5.222,0.629-7.891
		c0.284-4.882,0.504-9.805,0.662-14.769c0.121-3.808,0.204-7.637,0.254-11.489c0.032-2.659,0.087-5.304,0.087-7.982
		c0-0.763,0.009-1.509,0.009-2.272C1158.683,790.742,1138.814,783.184,1116.924,783.184z"/>
	<path style="fill:#F5AFAE;" d="M1116.924,790.461c-41.884,0-75.837,30.385-75.837,67.867c0,37.481,33.953,67.865,75.837,67.865
		c17.232,0,33.069-5.202,45.804-13.869c0.866-3.78,1.668-7.613,2.425-11.483c0.001-0.009,0.004-0.018,0.006-0.027
		c0-0.001,0-0.002,0.001-0.003c0.953-4.877,1.841-9.808,2.626-14.82c0-0.005,0.002-0.01,0.003-0.015
		c0.002-0.013,0.003-0.027,0.005-0.041c1.145-7.316,2.095-14.783,2.884-22.368c0.022-0.213,0.05-0.422,0.072-0.636
		c0.523-5.09,0.862-10.311,1.236-15.507c0.191-2.644,0.475-5.222,0.629-7.891c0.284-4.882,0.504-9.805,0.662-14.769
		c0.121-3.808,0.204-7.637,0.254-11.489C1159.64,799.309,1139.46,790.461,1116.924,790.461z"/>
	<path style="fill:#F5AAAC;" d="M1116.924,797.738c-37.394,0-67.704,27.127-67.704,60.59c0,33.461,30.31,60.588,67.704,60.588
		c18.889,0,35.953-6.937,48.235-18.102c0-0.001,0-0.002,0.001-0.003c0.953-4.877,1.841-9.808,2.626-14.82
		c0-0.005,0.002-0.01,0.003-0.015c0.002-0.013,0.003-0.027,0.005-0.041c1.145-7.316,2.095-14.783,2.884-22.368
		c0.022-0.213,0.05-0.422,0.072-0.636c0.523-5.09,0.862-10.311,1.236-15.507c0.191-2.644,0.475-5.222,0.629-7.891
		c0.284-4.882,0.504-9.805,0.662-14.769C1161.141,808.477,1140.441,797.738,1116.924,797.738z"/>
	<path style="fill:#F4A6A9;" d="M1116.924,805.014c-32.901,0-59.574,23.869-59.574,53.314c0,29.442,26.673,53.311,59.574,53.311
		c21.573,0,40.411-10.295,50.865-25.663c0.002-0.013,0.003-0.027,0.005-0.041c1.145-7.316,2.095-14.783,2.884-22.368
		c0.022-0.213,0.05-0.422,0.072-0.636c0.523-5.09,0.862-10.311,1.236-15.507c0.191-2.644,0.475-5.222,0.629-7.891
		C1164.117,819.377,1142.422,805.014,1116.924,805.014z"/>
	<path style="fill:#E67141;" d="M1367.55,1295.061c-36.501-37.044-162.766-77.035-187.937-84.746c0,0,0.001,0,0.001-0.001
		l-34.8-12.067c-0.054,0.08-0.115,0.159-0.168,0.239c-29.26,43.746-79.302,81.7-164.891,81.7
		c-81.858,0-134.434-35.797-167.786-76.672c0,0-0.075,0.026-0.201,0.069c-1.985,0.678-19.281,6.58-39.816,13.54l-25.118,8.461
		c-0.008,0.003-98.938,28.269-139.542,69.477c-40.606,41.21-112.653,398.852-115.946,448.177
		c-0.829,12.412,9.498,26.092,25.899,39.4c37.391,30.339,106.342,58.691,147.072,65.684c0.16,0.027,0.316,0.053,0.475,0.079
		c16.889,148.078,37.566,278.352,37.566,278.352h573.774c0,0,20.593-112.144,35.566-237.515c1.66-13.897,3.249-27.951,4.734-42.038
		c41.223-8.538,105.529-35.646,141.166-64.562c16.4-13.308,26.728-26.987,25.899-39.4
		C1480.203,1693.912,1408.156,1336.271,1367.55,1295.061z"/>
	<path style="fill:#27224F;" d="M856.815,1044.866c-36.445-23.713-62.813-60.568-78.555-108.164
		c-0.007-0.002-0.014-0.003-0.021-0.005c-0.095-0.288-0.172-0.595-0.265-0.886c-1.502-4.593-2.905-9.283-4.208-14.075
		c-0.266-0.896-0.562-1.764-0.803-2.685c-0.21-0.802-0.375-1.648-0.568-2.467c-5.281-20.832-8.785-43.394-10.348-67.639
		c-0.071-1.051-0.142-2.101-0.204-3.159c-3.146,1.39-6.42,2.299-9.758,2.515c-7.522,0.488-14.917-0.993-21.613-4.274
		c2.429,75.923,41.513,214.936,134.784,274.638C866.105,1097.258,864.232,1072.149,856.815,1044.866z"/>
	<path style="fill:#27224F;" d="M1172.136,847.458c-0.379,5.217-0.854,10.365-1.385,15.473c-0.022,0.214-0.049,0.423-0.072,0.636
		c-0.798,7.579-1.739,15.053-2.884,22.368c-0.002,0.013-0.003,0.027-0.005,0.041c0,0.005-0.002,0.01-0.003,0.015
		c-0.785,5.012-1.673,9.943-2.626,14.82c-0.001,0.001-0.001,0.002-0.001,0.003c-0.002,0.009-0.004,0.018-0.006,0.027
		c-0.757,3.87-1.559,7.703-2.425,11.483c-0.275,1.204-0.587,2.377-0.873,3.572c-0.141,0.585-0.284,1.167-0.428,1.749
		c-0.406,1.66-0.787,3.341-1.217,4.981c-0.84,3.209-1.747,6.358-2.672,9.493c-0.011,0.037-0.02,0.074-0.031,0.111h0
		c-12.923,43.742-34.179,80.158-65.762,105.343c-4.065,23.95-5.393,46.313-5.232,65.935
		c80.403-65.354,111.149-188.5,112.307-259.509c-6.711,3.301-14.127,4.792-21.67,4.302
		C1175.459,848.192,1173.787,847.888,1172.136,847.458z"/>
	<path style="fill:#E19592;" d="M957.045,1118.912c73.949-7.077,108.615-44.04,124.745-74.054
		c-28.984,19.67-65.702,30.796-111.5,30.796c-40.021,0-74.641-8.593-103.572-24.783
		C885.177,1079.74,914.523,1111.421,957.045,1118.912z"/>
	<path style="fill:#27224F;" d="M1219.823,559.156c-8.525-108.661-51.26-189.722-159.539-226.47
		c-2.55-7.066-6.667-13.688-12.121-19.698c85.512-132.903-15.54-162.504-71.255-161.026c-89.953,2.387-185.45,80.552-94.391,157.646
		c-7.159,6.941-12.449,14.833-15.469,23.354c-86.216,30.684-167.675,102.749-173.151,226.193
		C690.86,627.583,706,719.25,712.108,752.842c4.285-4.72,9.942-7.402,16.949-7.422c20.278-0.06,20.806,30.463,29.69,42.332
		c0.237-0.043,0.447-0.049,0.687-0.095c12.066-16.027,15.894-40.524,12.066-81.985c-4.451-48.235-3.874-130.916,40.701-183.376
		c-0.663,37.803,42.178,80.822,79.739,68.373c11.034-3.658,18.806-15.968,18.14-26.849c4.154,8.646,9.128,16.832,16.265,23.13
		c10.341,9.124,26.461,13.175,38.121,5.811c8.824-5.574,11.804-18.696,7.379-27.399c7.776,9.287,12.802,21.066,20.444,30.664
		c9.608,12.068,28.728,20.162,39.952,9.579c8.402-7.923,7.248-21.357,5.453-32.766c2.732,11.56,5.574,23.381,12.068,33.326
		c6.494,9.945,17.479,17.81,29.344,17.254c10.275-0.482,20.05-9.101,20.898-18.948c1.315,16.475,9.851,32.309,23.135,42.18
		c4.766,3.542,10.521,6.435,16.413,5.694c6.022-0.757,10.131-4.683,12.728-10.012c1.449,5.23,2.773,10.352,4.016,15.309
		c20.197,80.541-11.86,102.242,12.256,132.213c10.829-9.734,9.981-44.498,31.627-44.435c4.237,0.012,7.974,1.01,11.223,2.825
		C1215.429,716.739,1225.286,628.772,1219.823,559.156z"/>
	<path style="fill:#27224F;" d="M794.978,695.656c49.003-20.069,77.614-4.893,81.391-6.557c16.101-7.092,17.508-22.003,1.74-30.311
		c-2.676-1.432-62.976-5.331-83.131,18.419C786.503,687.193,789.462,697.916,794.978,695.656z"/>
	<path style="fill:#27224F;" d="M1048.27,689.099c3.777,1.664,32.389-13.512,81.391,6.557c5.516,2.259,8.474-8.463,0-18.449
		c-20.155-23.75-80.454-19.851-83.13-18.419C1030.763,667.096,1032.169,682.008,1048.27,689.099z"/>
	<path style="fill:#E19592;" d="M738.88,770.245c-2.033-4.511-4.364-8.348-7.447-10.986c-1.586-1.363-3.553-2.164-5.517-2.151
		c-2.416,0.006-4.524,1.095-6.219,2.562c-2.555,2.231-4.494,5.434-5.92,9.109c-1.409,3.679-2.259,7.843-2.263,12.015
		c0.001,2.822,0.392,5.654,1.333,8.322c0.563,1.595,2.313,2.431,3.907,1.868c1.595-0.563,2.432-2.313,1.869-3.908
		c-0.664-1.873-0.986-4.031-0.984-6.282c-0.012-4.429,1.273-9.194,3.128-12.604c0.917-1.706,1.975-3.064,2.933-3.885
		c0.974-0.838,1.734-1.078,2.215-1.072c0.404,0.013,0.824,0.099,1.558,0.7c1.941,1.619,4.016,4.757,5.814,8.812
		c3.878,8.62,6.591,21.075,8.243,31.801c-0.318-0.268-0.581-0.571-0.924-0.82c-1.911-1.391-4.331-2.457-7.101-2.455
		c-3.471-0.008-7.055,1.687-10.443,5.1c-1.196,1.196-1.196,3.135,0,4.331c1.196,1.196,3.135,1.196,4.331,0h0
		c2.697-2.673,4.66-3.299,6.112-3.306c1.184,0.002,2.317,0.434,3.509,1.291c1.776,1.266,3.439,3.489,4.548,5.393
		c0.559,0.95,0.992,1.814,1.279,2.428l0.318,0.712l0.073,0.176l0.015,0.037c0.555,1.42,2.076,2.216,3.559,1.864
		c1.484-0.352,2.484-1.747,2.342-3.265c-0.761-8.118-2.422-19.775-5.197-30.624C742.562,779.982,740.897,774.761,738.88,770.245z"/>
	<path style="fill:#E19592;" d="M1182.428,819.297c1.483,0.352,3.004-0.445,3.559-1.865l0.033-0.081
		c0.207-0.514,1.42-3.287,3.294-5.726c0.93-1.221,2.02-2.345,3.126-3.094c1.118-0.755,2.175-1.133,3.288-1.135
		c1.453,0.008,3.416,0.634,6.113,3.306c1.196,1.196,3.135,1.196,4.331,0c1.196-1.197,1.196-3.136,0-4.331h-0.001
		c-3.389-3.413-6.974-5.108-10.444-5.1c-2.771-0.002-5.191,1.064-7.101,2.455c-0.334,0.244-0.616,0.525-0.926,0.787
		c0.869-5.653,2.026-11.775,3.515-17.585c1.328-5.196,2.917-10.131,4.73-14.182c1.798-4.055,3.873-7.193,5.815-8.813
		c0.733-0.6,1.153-0.685,1.556-0.699c0.481-0.006,1.241,0.234,2.214,1.072c1.449,1.228,3.071,3.681,4.205,6.67
		c1.151,2.987,1.859,6.496,1.855,9.819c0.002,2.251-0.32,4.41-0.982,6.284c-0.562,1.595,0.275,3.345,1.87,3.907
		c1.595,0.562,3.345-0.275,3.907-1.871c0.938-2.666,1.328-5.497,1.33-8.32c-0.012-5.563-1.498-11.111-3.863-15.514
		c-1.193-2.2-2.608-4.125-4.318-5.609c-1.696-1.467-3.803-2.556-6.219-2.562c-1.964-0.013-3.93,0.788-5.515,2.15
		c-3.084,2.638-5.415,6.475-7.448,10.986c-6.007,13.508-9.108,33.594-10.27,45.787
		C1179.943,817.551,1180.944,818.946,1182.428,819.297z"/>
	<path style="fill:#27224F;" d="M868.489,745.362c-0.052-11.749-8.092-21.172-17.975-21.166c-9.618,0.118-17.541,9.648-17.404,21.52
		c0.106,11.636,8.141,21.104,17.806,20.989C860.758,766.63,868.639,757.026,868.489,745.362z"/>
	<path style="fill:#27224F;" d="M1095.669,745.261c-0.054-11.726-8.188-21.109-17.869-21.064
		c-9.864,0.031-17.653,9.615-17.55,21.301c0.05,11.796,8.041,21.238,18.027,21.146
		C1087.843,766.569,1095.814,756.974,1095.669,745.261z"/>
	<path style="fill:#E19592;" d="M953.163,838.4L953.163,838.4c6.22,3.301,14.345,4.43,22.421,4.451
		c6.332-0.002,12.614-0.739,17.857-1.948c2.624-0.607,4.987-1.33,7.005-2.178c2.019-0.865,3.701-1.791,5.037-3.164
		c1.167-1.225,1.121-3.163-0.103-4.33c-1.224-1.167-3.162-1.121-4.329,0.103c-0.319,0.362-1.402,1.096-2.981,1.746
		c-4.775,2.035-13.731,3.667-22.487,3.646c-7.455,0.021-14.849-1.183-19.527-3.724c-1.491-0.799-3.347-0.238-4.146,1.252
		C951.111,835.745,951.672,837.601,953.163,838.4z"/>
	<path style="fill:#E19592;" d="M947.168,953.445L947.168,953.445c6.22,3.301,14.345,4.43,22.421,4.451
		c6.332-0.002,12.614-0.739,17.857-1.948c2.624-0.608,4.987-1.331,7.005-2.179c2.018-0.865,3.7-1.79,5.036-3.164
		c1.167-1.224,1.121-3.162-0.103-4.33c-1.224-1.167-3.163-1.121-4.329,0.103c-0.319,0.362-1.402,1.096-2.981,1.746
		c-4.774,2.036-13.731,3.667-22.486,3.647c-7.456,0.02-14.849-1.184-19.527-3.725c-1.491-0.799-3.347-0.239-4.146,1.252
		C945.117,950.79,945.678,952.646,947.168,953.445z"/>
	<path style="fill:#E19592;" d="M992.704,787.815c1.462-0.851,1.958-2.726,1.107-4.187l-0.001,0
		c-10.405-17.845-13.851-38.7-13.84-54.325c-0.001-5.709,0.457-10.717,1.165-14.559c0.352-1.919,0.768-3.547,1.196-4.793
		c0.419-1.243,0.885-2.111,1.132-2.421c1.026-1.343,0.768-3.265-0.576-4.292c-1.345-1.026-3.266-0.768-4.292,0.576
		c-0.88,1.167-1.492,2.523-2.058,4.151c-1.646,4.849-2.681,12.267-2.692,21.337c0.011,16.486,3.545,38.26,14.672,57.406
		C989.367,788.17,991.242,788.666,992.704,787.815z"/>
	<polygon style="fill:#CC4D2E;" points="1331.833,1704.003 1260.523,1411.007 1315.499,1840.364 	"/>
	<polygon style="fill:#CC4D2E;" points="643.01,1704.003 662.296,1826.127 664.543,1840.364 714.579,1448.525 648.887,1683.022 	"/>
	<polygon style="fill:#CC4D2E;" points="902.016,1741.008 991.163,1774.454 1112.966,1727.629 	"/>
	<path style="fill:#F4A1A7;" d="M1116.924,812.292c-28.411,0-51.444,20.61-51.444,46.036c0,25.424,23.033,46.034,51.444,46.034
		c28.409,0,51.442-20.61,51.442-46.034C1168.366,832.902,1145.334,812.292,1116.924,812.292z"/>
	<path style="fill:#F39DA4;" d="M1116.924,819.568c-23.921,0-43.312,17.353-43.312,38.76c0,21.405,19.39,38.757,43.312,38.757
		c23.919,0,43.309-17.352,43.309-38.757C1160.233,836.922,1140.844,819.568,1116.924,819.568z"/>
	<path style="fill:#F298A2;" d="M1116.924,826.846c-19.429,0-35.179,14.093-35.179,31.481c0,17.385,15.75,31.48,35.179,31.48
		c19.427,0,35.179-14.094,35.179-31.48C1152.103,840.94,1136.351,826.846,1116.924,826.846z"/>
	<path style="fill:#F2939F;" d="M1116.924,834.122c-14.939,0-27.048,10.837-27.048,24.206c0,13.367,12.109,24.203,27.048,24.203
		c14.936,0,27.046-10.836,27.046-24.203C1143.97,844.959,1131.861,834.122,1116.924,834.122z"/>
	<path style="fill:#F18F9D;" d="M1116.924,841.399c-10.447,0-18.916,7.579-18.916,16.929c0,9.348,8.469,16.927,18.916,16.927
		c10.446,0,18.916-7.579,18.916-16.927C1135.84,848.978,1127.371,841.399,1116.924,841.399z"/>
	<path style="fill:#F39DA4;" d="M806.679,819.568c-23.919,0-43.311,17.353-43.311,38.76c0,21.405,19.392,38.757,43.311,38.757
		s43.312-17.352,43.312-38.757C849.99,836.922,830.598,819.568,806.679,819.568z"/>
	<path style="fill:#F298A2;" d="M806.679,826.846c-19.429,0-35.179,14.093-35.179,31.481c0,17.385,15.75,31.48,35.179,31.48
		c19.429,0,35.179-14.094,35.179-31.48C841.858,840.94,826.108,826.846,806.679,826.846z"/>
	<path style="fill:#F2939F;" d="M806.679,834.122c-14.936,0-27.046,10.837-27.046,24.206c0,13.367,12.11,24.203,27.046,24.203
		c14.937,0,27.046-10.836,27.046-24.203C833.725,844.959,821.615,834.122,806.679,834.122z"/>
	<path style="fill:#F18F9D;" d="M806.679,875.255c10.446,0,18.916-7.579,18.916-16.927c0-9.349-8.47-16.929-18.916-16.929
		c-10.446,0-18.915,7.579-18.915,16.929C787.763,867.676,796.232,875.255,806.679,875.255z"/>
	<path style="fill:#EF7E8F;" d="M1049.537,897.863c-0.636-1.568-2.421-2.323-3.988-1.687c-0.271,0.11-0.583,0.213-0.862,0.322
		c-1.052,0.409-2.165,0.807-3.339,1.196c-1.561-0.996-3.927-1.92-6.85-2.758c-11.064-3.174-29.525-5.128-37.754-5.128
		c-8.956,0-16.625,2.723-20.057,6.616c-3.429-3.893-11.101-6.616-20.054-6.616c-12.144,0-46.629,4.248-46.629,10.406
		c0,0.239,0.139,0.484,0.337,0.732c-1.748-0.509-3.383-1.043-4.834-1.612c-1.575-0.616-3.351,0.161-3.967,1.736
		c-0.616,1.575,0.161,3.351,1.736,3.967h-0.001c6.141,2.396,14.19,4.127,23.368,5.384c8.566,9.519,23.95,23.085,45.382,23.141
		c30.256,0.08,45.633-16.66,51.107-25.229c6.378-1.111,12.257-2.421,17.401-3.953c2.637-0.785,5.088-1.626,7.317-2.528
		c0.176-0.071,0.301-0.203,0.456-0.301C1049.528,900.772,1050.101,899.254,1049.537,897.863z"/>
	<path style="fill:#EA9273;" d="M1382.239,1650.3c12.711,6.835,38.139,2.941,40.99-2.132c2.85-5.073-8.4-39.597-18.573-54.387
		c-2.422-3.521-5.631-7.21-9.901-7.361c-3.361-0.119-6.482,2.156-8.13,5.087c-1.648,2.93-2.037,6.409-1.962,9.771
		c0.241,10.851,5.178,21.518,13.296,28.724c-3.988-2.592-7.552-5.856-11.805-7.985c-4.253-2.129-9.583-2.955-13.656-0.5
		c-5.291,3.19-6.344,10.908-3.699,16.491C1371.442,1643.589,1376.798,1647.373,1382.239,1650.3z"/>
	<path style="fill:#EA9273;" d="M1203.45,1638.566c-0.248-4.749,0.297-9.552-0.482-14.244c-0.779-4.691-3.244-9.489-7.625-11.339
		c-2.265-0.957-4.708-0.919-7.025-0.221c-3.503,1.056-6.706,3.661-8.489,6.925c-2.96,5.422-2.872,11.979-2.039,18.101
		c1.945,14.302,20.047,32.578,25.827,31.901c0.421-0.049,0.944-0.292,1.517-0.629c7.304-4.302,26.007-30.68,31.553-46.374
		c1.423-4.029,2.52-8.794,0.131-12.337c-1.879-2.788-5.555-3.975-8.896-3.585c-3.34,0.39-6.382,2.121-9.057,4.158
		C1210.23,1617.497,1204.505,1627.763,1203.45,1638.566z"/>
	<path style="fill:#EA9273;" d="M1227.922,1996.844c-3.34,0.39-6.382,2.121-9.057,4.158c-8.636,6.576-14.36,16.841-15.415,27.644
		c-0.248-4.749,0.297-9.552-0.482-14.243c-0.779-4.692-3.244-9.489-7.625-11.34c-5.691-2.404-12.552,1.282-15.513,6.705
		c-2.96,5.422-2.872,11.979-2.039,18.1c1.945,14.302,20.047,32.579,25.827,31.901c5.78-0.677,27.089-30.078,33.07-47.003
		c1.423-4.029,2.52-8.794,0.131-12.337C1234.938,1997.641,1231.262,1996.455,1227.922,1996.844z"/>
	<path style="fill:#EA9273;" d="M1313.665,1368.238c12.712,6.836,38.139,2.941,40.99-2.132c2.851-5.073-8.4-39.597-18.573-54.388
		c-2.422-3.521-5.631-7.21-9.901-7.361c-3.361-0.119-6.482,2.156-8.13,5.087s-2.038,6.409-1.963,9.771
		c0.241,10.851,5.178,21.518,13.295,28.724c-3.988-2.592-7.552-5.857-11.804-7.985c-4.253-2.129-9.583-2.956-13.656-0.5
		c-5.29,3.189-6.344,10.907-3.699,16.49C1302.868,1361.528,1308.224,1365.311,1313.665,1368.238z"/>
	<path style="fill:#EA9273;" d="M1207.303,1507.602c2.851-5.073-8.4-39.597-18.573-54.387c-1.574-2.289-3.489-4.632-5.805-6.044
		c-1.245-0.76-2.602-1.264-4.096-1.316c-3.361-0.119-6.482,2.156-8.13,5.087c-1.648,2.93-2.037,6.409-1.962,9.771
		c0.241,10.851,5.178,21.518,13.296,28.724c-3.988-2.592-7.552-5.856-11.805-7.985c-4.252-2.129-9.583-2.955-13.655-0.5
		c-5.291,3.19-6.344,10.908-3.699,16.491c2.645,5.583,8,9.367,13.442,12.293c5.004,2.691,11.975,3.702,18.768,3.65
		C1195.542,1513.304,1205.575,1510.678,1207.303,1507.602z"/>
	<path style="fill:#EA9273;" d="M778.846,1994.508c-3.361-0.119-6.482,2.156-8.13,5.087c-1.649,2.931-2.037,6.409-1.963,9.771
		c0.241,10.851,5.179,21.518,13.295,28.724c-3.987-2.592-7.552-5.857-11.805-7.986c-4.252-2.129-9.583-2.955-13.656-0.5
		c-5.291,3.19-6.344,10.907-3.699,16.49c2.645,5.583,8.001,9.367,13.442,12.293c12.712,6.836,38.139,2.941,40.989-2.132
		c2.851-5.073-8.399-39.597-18.573-54.387C786.326,1998.348,783.117,1994.659,778.846,1994.508z"/>
	<path style="fill:#EA9273;" d="M965.637,1650.3c12.711,6.835,38.139,2.941,40.99-2.132c2.851-5.073-8.399-39.597-18.573-54.387
		c-2.422-3.521-5.631-7.21-9.901-7.361c-3.361-0.119-6.482,2.156-8.13,5.087c-1.648,2.93-2.037,6.409-1.962,9.771
		c0.241,10.851,5.178,21.518,13.295,28.724c-3.987-2.592-7.551-5.856-11.804-7.985c-4.253-2.129-9.583-2.955-13.656-0.5
		c-5.291,3.19-6.344,10.908-3.699,16.491C954.84,1643.589,960.196,1647.373,965.637,1650.3z"/>
	<path style="fill:#EA9273;" d="M1151.115,1816.853c-3.184,1.081-5.797,3.41-7.987,5.962c-7.068,8.237-10.516,19.474-9.287,30.258
		c-1.237-4.592-1.709-9.402-3.453-13.827c-1.744-4.425-5.159-8.6-9.831-9.492c-6.068-1.16-12.006,3.882-13.766,9.803
		c-1.76,5.922-0.301,12.315,1.794,18.127c4.896,13.577,26.423,27.66,31.933,25.788c5.51-1.873,20.192-35.082,22.498-52.885
		c0.549-4.238,0.624-9.127-2.454-12.092C1158.142,1816.163,1154.299,1815.772,1151.115,1816.853z"/>
	<path style="fill:#EA9273;" d="M1407.923,1731.548c-8.832,6.309-14.868,16.395-16.252,27.16c-0.104-4.755,0.588-9.539-0.047-14.251
		c-0.636-4.713-2.953-9.584-7.276-11.568c-5.615-2.577-12.586,0.899-15.712,6.228c-3.125,5.329-3.236,11.886-2.591,18.03
		c1.507,14.354,19.042,33.175,24.84,32.675c5.797-0.501,27.995-29.236,34.49-45.971c1.546-3.983,2.788-8.713,0.509-12.328
		c-1.794-2.844-5.431-4.142-8.782-3.855C1413.753,1727.957,1410.66,1729.594,1407.923,1731.548z"/>
	<path style="fill:#EA9273;" d="M1331.937,1479.604c-0.104-4.755,0.588-9.539-0.047-14.252c-0.635-4.713-2.953-9.584-7.275-11.567
		c-5.615-2.577-12.586,0.899-15.712,6.227c-3.125,5.33-3.236,11.886-2.591,18.03c1.507,14.354,19.042,33.176,24.84,32.675
		c5.798-0.501,27.995-29.236,34.491-45.971c1.546-3.983,2.788-8.713,0.509-12.328c-1.794-2.844-5.432-4.143-8.782-3.855
		c-3.35,0.288-6.443,1.925-9.18,3.879C1339.357,1458.753,1333.321,1468.839,1331.937,1479.604z"/>
	<path style="fill:#EA9273;" d="M1037.942,1442.099c5.798-0.5,27.995-29.236,34.49-45.971c1.547-3.984,2.788-8.713,0.509-12.328
		c-1.794-2.844-5.432-4.143-8.782-3.855c-3.35,0.288-6.444,1.925-9.18,3.88c-8.833,6.309-14.868,16.395-16.253,27.16
		c-0.103-4.755,0.589-9.539-0.047-14.252c-0.635-4.713-2.953-9.584-7.276-11.567c-5.615-2.577-12.586,0.898-15.711,6.227
		c-3.125,5.33-3.237,11.886-2.592,18.03C1014.609,1423.778,1032.144,1442.599,1037.942,1442.099z"/>
	<path style="fill:#EA9273;" d="M1179.732,1358.833c0.089-0.007,0.216-0.081,0.313-0.102c6.198-1.339,27.782-29.391,34.177-45.869
		c1.546-3.984,2.788-8.713,0.509-12.328c-1.794-2.844-5.431-4.143-8.782-3.855c-3.351,0.288-6.444,1.925-9.18,3.879
		c-8.832,6.309-14.868,16.395-16.252,27.16c-0.103-4.755,0.588-9.539-0.047-14.251c-0.302-2.24-1.015-4.497-2.11-6.481
		c-1.211-2.191-2.897-4.046-5.166-5.087c-5.615-2.577-12.586,0.898-15.711,6.228c-3.125,5.328-3.237,11.885-2.592,18.03
		C1156.399,1340.512,1173.934,1359.334,1179.732,1358.833z"/>
	<path style="fill:#EA9273;" d="M799.355,1868.339c2.851-5.073-8.399-39.597-18.572-54.387c-2.422-3.521-5.631-7.21-9.902-7.361
		c-3.361-0.119-6.482,2.156-8.13,5.087c-1.649,2.931-2.038,6.41-1.963,9.771c0.241,10.851,5.179,21.518,13.296,28.724
		c-3.988-2.592-7.552-5.856-11.804-7.985c-4.253-2.129-9.583-2.955-13.656-0.5c-5.29,3.19-6.344,10.908-3.699,16.491
		c2.644,5.583,8,9.367,13.441,12.293C771.077,1877.307,796.504,1873.413,799.355,1868.339z"/>
	<path style="fill:#EA9273;" d="M765.69,1664.246c5.78-0.677,27.089-30.078,33.07-47.003c1.424-4.029,2.52-8.794,0.131-12.337
		c-1.879-2.788-5.555-3.975-8.895-3.585s-6.382,2.121-9.057,4.158c-8.636,6.576-14.36,16.841-15.415,27.644
		c-0.248-4.749,0.297-9.552-0.482-14.244c-0.779-4.691-3.244-9.489-7.625-11.339c-5.691-2.404-12.553,1.282-15.513,6.704
		c-2.96,5.422-2.872,11.979-2.039,18.101C741.808,1646.647,759.91,1664.924,765.69,1664.246z"/>
	<path style="fill:#EA9273;" d="M787.903,1325.071c-3.361-0.119-6.482,2.156-8.13,5.087c-1.648,2.931-2.037,6.409-1.962,9.771
		c0.241,10.852,5.178,21.518,13.295,28.724c-3.987-2.592-7.552-5.857-11.805-7.986c-4.252-2.129-9.583-2.955-13.655-0.5
		c-5.291,3.19-6.344,10.907-3.699,16.49c2.645,5.583,8.001,9.367,13.442,12.293c12.711,6.836,38.139,2.942,40.99-2.132
		c2.851-5.073-8.399-39.597-18.573-54.388C795.383,1328.911,792.174,1325.222,787.903,1325.071z"/>
	<path style="fill:#EA9273;" d="M653.733,1368.238c9.136,4.913,24.805,4.272,33.975,1.645c3.589-1.028,6.213-2.351,7.015-3.777
		c1.14-2.029,0.002-8.797-2.398-17.102c-3.601-12.459-10.071-28.411-16.175-37.286c-2.422-3.521-5.631-7.21-9.901-7.361
		c-3.36-0.119-6.481,2.156-8.13,5.087c-1.649,2.931-2.037,6.409-1.963,9.771c0.241,10.851,5.178,21.518,13.296,28.724
		c-3.988-2.592-7.552-5.857-11.804-7.985c-4.253-2.129-9.583-2.956-13.656-0.5c-5.291,3.189-6.344,10.907-3.699,16.49
		C642.936,1361.528,648.292,1365.311,653.733,1368.238z"/>
	<path style="fill:#EA9273;" d="M549.531,1706.905c-3.361-0.119-6.482,2.156-8.13,5.087c-1.648,2.931-2.037,6.409-1.963,9.771
		c0.241,10.852,5.179,21.518,13.296,28.724c-3.988-2.592-7.552-5.857-11.805-7.986c-4.253-2.129-9.583-2.956-13.656-0.5
		c-5.291,3.19-6.344,10.907-3.699,16.49c2.644,5.583,8,9.367,13.441,12.293c12.711,6.836,38.139,2.941,40.99-2.132
		c2.851-5.073-8.4-39.597-18.573-54.387C557.011,1710.745,553.802,1707.056,549.531,1706.905z"/>
	<path style="fill:#EA9273;" d="M961.378,1934.609c-3.35,0.288-6.444,1.924-9.18,3.879c-8.832,6.309-14.868,16.395-16.252,27.16
		c-0.104-4.754,0.588-9.538-0.047-14.251c-0.635-4.713-2.953-9.584-7.275-11.567c-5.615-2.577-12.586,0.898-15.711,6.227
		c-3.125,5.329-3.237,11.885-2.592,18.03c1.507,14.354,19.042,33.176,24.84,32.675c5.797-0.501,27.995-29.236,34.49-45.971
		c1.546-3.983,2.788-8.713,0.509-12.327C968.366,1935.62,964.728,1934.321,961.378,1934.609z"/>
	<path style="fill:#EA9273;" d="M920.101,1486.196c-1.794-2.844-5.432-4.142-8.782-3.855c-3.35,0.288-6.444,1.925-9.18,3.88
		c-8.833,6.309-14.868,16.395-16.252,27.16c-0.103-4.754,0.588-9.539-0.047-14.251c-0.635-4.713-2.953-9.584-7.276-11.568
		c-5.615-2.577-12.586,0.898-15.711,6.228c-3.125,5.329-3.237,11.885-2.592,18.03c1.508,14.354,19.042,33.176,24.84,32.675
		c5.798-0.501,27.995-29.236,34.49-45.971C921.138,1494.54,922.38,1489.811,920.101,1486.196z"/>
	<path style="fill:#EA9273;" d="M629.828,1603.381c-3.35,0.288-6.443,1.925-9.18,3.879c-8.832,6.308-14.868,16.395-16.252,27.16
		c-0.103-4.755,0.588-9.539-0.047-14.252c-0.635-4.713-2.953-9.584-7.276-11.567c-5.615-2.577-12.586,0.898-15.711,6.227
		c-3.125,5.33-3.236,11.886-2.591,18.03c1.508,14.354,19.042,33.175,24.84,32.675c5.798-0.5,27.995-29.236,34.491-45.971
		c1.546-3.984,2.788-8.713,0.509-12.328C636.816,1604.391,633.178,1603.094,629.828,1603.381z"/>
	<path style="fill:#EA9273;" d="M591.955,1502.102c4.896,3.145,40.024-6.043,55.39-15.324c3.658-2.209,7.531-5.195,7.934-9.449
		c0.318-3.348-1.769-6.598-4.597-8.417c-2.829-1.819-6.278-2.413-9.638-2.537c-10.847-0.401-21.787,3.897-29.459,11.574
		c2.823-3.828,6.293-7.193,8.669-11.312c2.376-4.12,3.517-9.392,1.307-13.602c-2.872-5.47-10.514-6.978-16.243-4.668
		c-5.729,2.31-9.824,7.432-13.067,12.691C584.675,1473.343,587.059,1498.957,591.955,1502.102z"/>
	<path style="fill:#FDFDFD;" d="M983.262,1327.742c85.072,0,152.412-47.312,192.168-110.717c1.4-2.234,2.853-4.438,4.184-6.711
		c0,0,0.001,0,0.001-0.001l-34.8-12.067c-0.054,0.08-0.115,0.159-0.168,0.239c-29.26,43.746-79.302,81.7-164.891,81.7
		c-81.858,0-134.434-35.797-167.786-76.672c0,0-0.075,0.026-0.201,0.069c-1.985,0.678-19.281,6.58-39.816,13.54
		c-0.096,0.033-0.189,0.064-0.285,0.097C816.523,1280.782,893.756,1327.742,983.262,1327.742z"/>
	<path style="fill:#E16C79;" d="M965.889,912.818c-12.512-0.001-24.709-0.613-35.492-1.88c-1.297-0.154-2.5-0.346-3.753-0.518
		c8.566,9.519,23.95,23.085,45.382,23.141c30.256,0.08,45.633-16.66,51.107-25.229c-3.64,0.634-7.43,1.208-11.363,1.712
		C997.421,911.875,981.416,912.818,965.889,912.818z"/>
	<path style="fill:#DF655C;" d="M1000.697,318.06c21.797,3.581,41.569,8.511,59.588,14.627c-2.55-7.066-6.667-13.688-12.121-19.698
		c-17.6-19.393-48.791-32.336-84.445-32.336c-33.545,0-63.15,11.454-81.201,28.956c-7.159,6.941-12.449,14.833-15.469,23.354
		C914.025,316.244,962.411,311.769,1000.697,318.06z"/>
</g>
</svg>
