<?xml version="1.0" encoding="utf-8"?>
<!-- Generator: Adobe Illustrator 27.5.0, SVG Export Plug-In . SVG Version: 6.00 Build 0)  -->
<svg version="1.1" id="Layer_1" xmlns="http://www.w3.org/2000/svg" xmlns:xlink="http://www.w3.org/1999/xlink" x="0px" y="0px"
	 viewBox="0 0 253.797 286.794" style="enable-background:new 0 0 253.797 286.794;" xml:space="preserve">
<g>
	<g>
		<g>
			<g>
				<path style="fill:#8E5B3A;" d="M151.362,34.126c0,0-2.198-19.236,21.068-27.481c18.687-6.046,34.107,2.193,37.547,7.784
					c15.483-0.215,30.321,21.289,24.085,44.514c18.494,24.3,25.805,65.696-7.419,98.92c-18.386,16.128-21.612,29.676-15.483,32.902
					c6.129,3.226,23.225,4.193,25.483,25.16c2.258,20.967-18.386,31.289-35.805,30.966c-11.29,0-11.612,8.709-2.58,9.677
					c9.032,0.968,20.322,1.935,19.999,13.225c-0.322,11.29-12.257,16.128-17.419,9.354c12.258-0.645,12.258-8.387,10.967-12.903
					c-1.29-4.516-7.251-6.201-18.709-4.516c-10.967,1.613-20.322-8.064-19.354-18.064c0.968-10,10.735-11.788,17.419-10.322
					c7.396,1.622,23.357-0.641,23.225-11.29c-0.125-10.039-9.487-8.529-17.64-10.341c-7.878-1.751-15.261-5.465-17.519-15.464
					c-0.323,0.968,5.161,11.612-0.323,19.999c-5.484,8.387-12.903,15.161-13.548,21.612c0.323-8.709,1.935-9.999,6.451-15.483
					c4.516-5.484,10.322-14.193,3.871-26.45c-6.451-12.258-10.103-16.982-5.484-35.805
					C174.496,142.595,168.657,67.156,151.362,34.126z"/>
				<path style="fill:#62351D;" d="M207.148,282.492c-2.568,0-4.918-1.118-6.503-3.198c-0.054-0.071-0.064-0.167-0.027-0.249
					c0.038-0.081,0.117-0.135,0.208-0.14c4.799-0.252,8.12-1.623,9.869-4.074c2.058-2.883,1.432-6.575,0.877-8.52
					c-1.283-4.491-7.484-5.952-18.44-4.342c-5.157,0.762-10.355-0.935-14.256-4.647c-3.84-3.654-5.849-8.768-5.375-13.679
					c0.353-3.651,1.87-6.475,4.507-8.395c3.92-2.854,9.39-2.976,13.206-2.141c4.7,1.031,14.119,0.551,19.403-3.754
					c2.377-1.936,3.563-4.391,3.527-7.296c-0.096-7.677-5.669-8.406-12.123-9.25c-1.754-0.229-3.569-0.467-5.327-0.857
					c-5.288-1.176-12.211-3.542-15.869-10.554c0.957,4.087,1.566,9.965-1.716,14.985c-1.807,2.764-3.803,5.327-5.735,7.806
					c-3.943,5.063-7.348,9.436-7.774,13.697c-0.013,0.131-0.147,0.236-0.258,0.218c-0.131-0.009-0.231-0.119-0.226-0.25
					c0.302-8.161,1.736-9.887,5.57-14.498c0.297-0.358,0.609-0.733,0.936-1.131c5.006-6.079,9.967-14.549,3.843-26.183
					c-0.461-0.877-0.909-1.717-1.34-2.525c-5.642-10.577-8.474-15.886-4.163-33.449c2.227-9.075,1.683-32.554-1.323-57.096
					c-4.914-40.124-13.067-60.283-17.489-68.729c-0.013-0.026-0.023-0.055-0.026-0.085c-0.023-0.194-1.951-19.523,21.229-27.736
					c18.197-5.888,33.923,1.762,37.761,7.769c0.031,0,0.063,0,0.095,0c6.337,0,12.763,3.596,17.665,9.898
					c7.334,9.426,9.744,22.43,6.457,34.808c9.967,13.141,15.674,29.96,15.662,46.165c-0.015,19.512-8.029,37.832-23.175,52.978
					c-14.388,12.622-18.826,22.9-18.186,28.313c0.232,1.961,1.146,3.415,2.644,4.203c1.164,0.612,2.73,1.143,4.543,1.757
					c7.657,2.593,19.228,6.511,21.068,23.593c0.816,7.582-1.357,14.437-6.286,19.824c-6.636,7.254-18.026,11.61-29.765,11.41
					c-5.807,0-8.581,2.37-8.699,4.572c-0.101,1.897,1.78,4.153,6.149,4.62l0.556,0.06c8.902,0.949,19.983,2.131,19.66,13.414
					c-0.202,7.085-4.662,11.011-8.42,12.22C209.091,282.338,208.104,282.492,207.148,282.492z M201.322,279.361
					c2.088,2.449,5.273,3.267,8.608,2.198c3.607-1.161,7.889-4.94,8.084-11.772c0.31-10.835-10.522-11.991-19.227-12.919
					l-0.555-0.059c-4.683-0.502-6.694-3.01-6.582-5.129c0.134-2.505,3.027-5.032,9.188-5.032
					c11.596,0.191,22.856-4.098,29.403-11.253c4.9-5.356,6.974-11.899,6.16-19.445c-1.807-16.773-13.2-20.631-20.74-23.184
					c-1.833-0.62-3.416-1.157-4.613-1.787c-1.645-0.866-2.649-2.448-2.9-4.575c-0.656-5.536,3.818-15.988,18.335-28.724
					c15.042-15.042,23.006-33.243,23.021-52.624c0.012-16.14-5.686-32.894-15.636-45.966c-0.045-0.06-0.061-0.137-0.041-0.21
					c3.294-12.266,0.923-25.163-6.341-34.499c-4.867-6.257-11.257-9.792-17.506-9.709c-0.002,0-0.003,0-0.004,0
					c-0.084,0-0.162-0.044-0.206-0.116c-3.636-5.907-19.198-13.525-37.265-7.68c-22.285,7.896-20.999,26.159-20.907,27.179
					c4.443,8.499,12.603,28.719,17.519,68.852c3.012,24.595,3.553,48.145,1.314,57.271c-4.267,17.384-1.464,22.638,4.12,33.106
					c0.431,0.81,0.879,1.649,1.342,2.528c6.257,11.887,1.203,20.522-3.898,26.718c-0.328,0.398-0.64,0.774-0.939,1.132
					c-3.264,3.928-4.753,5.719-5.281,11.37c1.262-3.501,4.069-7.105,7.214-11.144c1.925-2.471,3.915-5.027,5.712-7.774
					c4.232-6.472,1.868-14.205,0.732-17.921c-0.379-1.236-0.529-1.749-0.438-2.021c0.034-0.103,0.117-0.167,0.242-0.166
					c0.108,0.006,0.2,0.083,0.225,0.189c2.435,10.785,11.06,13.886,17.336,15.28c1.736,0.386,3.54,0.622,5.285,0.85
					c6.399,0.837,12.444,1.627,12.545,9.725c0.038,3.061-1.209,5.644-3.706,7.678c-5.409,4.407-15.025,4.903-19.813,3.852
					c-3.708-0.814-9.024-0.699-12.816,2.059c-2.521,1.834-3.971,4.542-4.31,8.05c-0.461,4.764,1.493,9.728,5.226,13.282
					c3.791,3.609,8.843,5.255,13.852,4.518c11.226-1.654,17.615-0.076,18.977,4.689c0.58,2.028,1.227,5.886-0.949,8.935
					C209.309,277.607,206.025,279.036,201.322,279.361z"/>
			</g>
			<g>
				<path style="fill:#8E5B3A;" d="M226.644,157.863c12.759-12.759,19.535-26.723,22-40.462c-0.018-0.025-0.037-0.052-0.055-0.077
					c-3.42,14.741-10.26,21.345-8.491,16.157c1.769-5.189,2.674-17.551,2.674-17.551c-0.645,4.516-4.516,19.031-11.29,25.483
					c5.161-10.967,7.59-24.601,7.59-24.601c-2.409,13.14-14.687,32.02-22.106,35.568c20.321-30.966,22.579-60.32,11.935-79.351
					c8.064,19.999,0.968,60.32-14.516,66.448c10.967-13.548,8.387-39.03,8.387-39.03s-0.968,9.677-6.774,14.838
					c17.419-66.448-33.224-72.9-33.224-72.9c18.709-2.58,33.224,13.225,33.224,13.225s-4.838-10.322-23.547-19.354
					c44.277,5.313,55.327,53.026,56.885,61.091c-1.551-14.601-7.397-28.054-15.274-38.404c0.367-1.367,0.655-2.728,0.88-4.079
					c-20.464-25.061-40.678-27.167-40.678-27.167c8.327-2.831,22.984,4.83,25.815,7.661c-10.992-16.988-38.972-20.652-50.964-9.16
					c1.665-7.661,9.327-15.156,25.982-14.823c-4.663-2.332-20.152-2.998-27.98,3.498c1.14-4.38,5.008-7.35,9.508-9.356
					c-1.378,0.302-2.776,0.669-4.195,1.129c-23.267,8.244-21.068,27.481-21.068,27.481c17.294,33.029,23.134,108.469,18.833,125.995
					c-4.619,18.822-0.968,23.547,5.484,35.805c6.451,12.258,0.645,20.967-3.871,26.45s-6.129,6.774-6.451,15.483
					c0.645-6.451,8.064-13.225,13.548-21.612c5.484-8.387,0-19.031,0.323-19.999c2.258,9.999,9.641,13.713,17.519,15.464
					c8.154,1.812,17.516,0.302,17.64,10.341c0.133,10.649-15.828,12.912-23.225,11.29c-6.684-1.466-16.451,0.323-17.419,10.322
					c-0.968,9.999,8.387,19.676,19.354,18.064c11.458-1.685,17.419,0,18.709,4.516c1.29,4.516,1.29,12.258-10.967,12.902
					c1.39,1.824,3.272,2.799,5.285,3.04c4.597-2.598,9.109-6.836,9.39-12.406c0.156-3.077-1.133-5.94-2.495-8.619
					c-0.247-0.486-0.57-1.044-0.765-1.616c-3.97-1.966-9.288-2.474-13.995-2.978c-9.032-0.968-8.709-9.677,2.581-9.677
					c1.583,0.029,3.192-0.032,4.808-0.178c-0.314-0.049-0.62-0.091-0.937-0.144c18.386-5.806,18.386-9.354,23.225-17.096
					c-8.709,10-20.322,6.774-20.322,6.774c16.773-3.548,21.289-17.741,17.203-27.633c-4.086-9.892-14.408-9.677-18.064-13.333
					c1.29,4.516,7.459,7.861,7.459,7.861c-4.675,0.988-11.76-4.313-14.018-8.507c-6.451-10.322,5.161-21.289,5.161-21.289
					s-3.548,9.677-0.104,19.015c-1.716-8.403,2.039-19.66,11.393-25.143c-0.27,0.612-0.512,1.195-0.741,1.765
					C218.657,165.499,222.204,161.758,226.644,157.863z"/>
			</g>
			<g>
				<path style="fill:#8E5B3A;" d="M220.109,223.151c3.456-8.641-3.744-15.266-21.026-19.586
					c-17.282-4.32-16.418-19.586-13.25-25.861c-1.729,6.398,3.457,15.78,10.658,19.525c-4.896-8.065-0.288-16.994,7.777-25.923
					c8.065-8.929,6.337-25.347,6.337-25.347c10.657-25.923-22.178-37.732-21.314-40.612c5.473-21.602-0.864-36.004-0.864-36.004
					c12.961,9.505,8.641,30.531,8.641,30.531c2.592-7.489,6.337-31.107-6.913-44.069c20.45,8.641,21.89,29.667,21.89,29.667
					c2.304-39.748-37.732-42.34-37.732-42.34s7.777-4.32,18.146-3.744c-9.793-7.489-19.01-4.032-19.01-4.032
					c4.897-9.505,18.434-11.521,18.434-11.521c-18.146-0.576-25.635,11.233-25.635,11.233c-3.456-14.978,8.353-21.89,8.353-21.89
					s-13.537,6.049-14.978,12.961c-1.189-4.926-0.895-8.918,0.126-12.109c-9.647,8.958-8.386,20.097-8.386,20.097
					c17.294,33.029,23.134,108.469,18.833,125.995c-4.619,18.822-0.968,23.547,5.484,35.805c6.451,12.258,0.645,20.967-3.871,26.45
					s-6.129,6.774-6.451,15.483c0.645-6.451,8.064-13.225,13.548-21.612c5.484-8.387,0-19.031,0.323-19.999
					c2.258,9.999,9.641,13.713,17.519,15.464c8.154,1.812,17.516,0.302,17.64,10.341c0.082,6.579-5.98,9.955-12.37,11.193
					C209.185,232.273,217.396,229.934,220.109,223.151z"/>
			</g>
			<g>
				<path style="fill:#62351D;" d="M234.453,59.072c-3.876-6.1-8.68-11.552-14.215-16.2c-2.781-2.335-5.741-4.455-8.85-6.333
					c-3.212-1.94-6.638-3.61-10.256-4.64c-4.01-1.142-8.287-1.47-12.339-0.348c-0.176,0.049-0.48,0.571-0.22,0.506
					c7.384-1.833,14.914,0.848,21.263,4.562c6.149,3.598,11.759,8.197,16.576,13.44c2.732,2.974,5.24,6.161,7.47,9.527
					C234.061,59.856,234.595,59.296,234.453,59.072z"/>
				<path style="fill:#62351D;" d="M217.496,33.437c-4.877-4.93-11.415-8.034-18.267-8.986c-6.696-0.931-13.593,0.332-19.579,3.46
					c-3.362,1.756-6.439,4.084-8.984,6.899c-0.206,0.227-0.025,0.377,0.185,0.161c4.657-4.786,10.695-8.143,17.253-9.457
					c6.536-1.309,13.371-0.492,19.461,2.198c3.474,1.535,6.703,3.652,9.508,6.211C217.238,34.073,217.657,33.6,217.496,33.437z"/>
				<path style="fill:#62351D;" d="M211.165,76.873c-2.01-8.973-7.806-16.932-15.498-21.919c-4.326-2.804-9.181-4.65-14.304-5.277
					c-0.124-0.015-0.352,0.302-0.216,0.325c8.807,1.507,16.913,6.473,22.465,13.443c2.789,3.502,4.943,7.53,6.211,11.828
					c1.599,5.42,1.779,11.187,1.108,16.771c-0.786,6.533-2.69,12.896-4.88,19.082c-0.177,0.501,0.436,0.227,0.547-0.067
					C210.668,100.278,213.743,88.386,211.165,76.873z"/>
				<path style="fill:#62351D;" d="M231.315,76.135c-1.803-6.237-4.423-12.195-7.743-17.772c-0.102-0.172-0.461,0.191-0.382,0.336
					c5.426,9.966,9.037,21.059,9.847,32.408c0.403,5.641,0.098,11.33-1.013,16.879c-1.164,5.814-3.227,11.402-5.737,16.762
					c-2.847,6.08-6.261,11.866-9.527,17.724c-0.329,0.589,0.32,0.578,0.583,0.152c6.31-10.2,12.428-20.938,15.198-32.714
					C235.156,98.796,234.474,87.063,231.315,76.135z"/>
				<path style="fill:#62351D;" d="M240.771,89.891c-0.59-5.019-1.705-9.957-3.337-14.74c-0.048-0.14-0.356,0.146-0.314,0.279
					c2.701,8.549,3.833,17.586,3.424,26.539c-0.41,8.954-2.378,17.846-5.811,26.126c-1.92,4.63-4.305,9.052-7.103,13.209
					c-0.3,0.446,0.226,0.415,0.443,0.105c5.171-7.414,8.853-15.824,10.999-24.596C241.218,108.044,241.826,98.859,240.771,89.891z"
					/>
				<path style="fill:#62351D;" d="M243.208,88.698c-0.021-0.134-0.346,0.144-0.325,0.288c1.757,12.45,0.419,25.358-3.848,37.184
					c-1.174,3.255-2.565,6.436-4.116,9.529c-0.202,0.403,0.337,0.146,0.452-0.063c6.033-11.017,8.964-23.83,8.77-36.364
					C244.085,95.724,243.765,92.2,243.208,88.698z"/>
				<path style="fill:#62351D;" d="M198.72,80.946c-1.315-6.611-4.529-12.796-9.123-17.725c-2.52-2.705-5.446-5.08-8.702-6.843
					c-0.132-0.071-0.404,0.258-0.288,0.332c5.467,3.477,10.098,8.082,13.319,13.73c3.466,6.077,5.109,13.056,4.812,20.04
					c-0.177,4.172-1.042,8.323-2.584,12.204c-0.146,0.369,0.312,0.145,0.397-0.06C199.405,95.787,200.166,88.214,198.72,80.946z"/>
				<path style="fill:#62351D;" d="M196.479,79.423c-0.554-1.964-1.379-3.849-2.431-5.597c-0.075-0.125-0.345,0.15-0.286,0.255
					c2.217,3.979,3.163,8.561,3.268,13.085c0.119,5.094-0.818,10.117-1.66,15.119c-0.066,0.39,0.462,0.008,0.508-0.205
					C197.467,94.7,198.567,86.823,196.479,79.423z"/>
				<path style="fill:#62351D;" d="M214.608,202.528c-4.272-2.027-7.574-5.828-9.357-10.167c-1.997-4.86-1.981-10.29-0.544-15.299
					c0.876-3.054,2.233-5.933,3.965-8.593c0.154-0.236-0.109-0.201-0.215-0.04c-3.122,4.712-5.238,10.199-5.372,15.895
					c-0.118,4.997,1.44,10.014,4.608,13.913c1.753,2.158,3.95,3.836,6.519,4.905C214.44,203.237,214.886,202.66,214.608,202.528z"/>
				<path style="fill:#62351D;" d="M225.598,210.517c-1.232-3.777-3.819-6.962-7.004-9.287c-1.776-1.296-3.738-2.329-5.786-3.12
					c-0.133-0.051-0.41,0.309-0.248,0.375c7.148,2.893,13.018,9.336,13.149,17.342c0.037,2.288-0.43,4.561-1.435,6.62
					c-0.082,0.167-0.042,0.328,0.149,0.347c0.202,0.021,0.406-0.267,0.479-0.415C226.727,218.697,226.864,214.399,225.598,210.517z"
					/>
				<path style="fill:#62351D;" d="M216.787,204.679c-5.633-0.681-10.777-4.527-12.798-9.859c-0.055-0.146-0.375,0.152-0.326,0.288
					c1.982,5.424,7.052,9.497,12.832,10.014C216.671,205.138,216.975,204.702,216.787,204.679z"/>
				<path style="fill:#62351D;" d="M199.034,241.533c-3.833,0.026-7.001,2.768-8.068,6.374c-0.961,3.251-0.219,7.842,3.381,9.114
					c0.245,0.087,0.706-0.51,0.412-0.639c-3.015-1.324-3.903-5.201-3.268-8.151c0.748-3.477,3.721-6.169,7.333-6.248
					C198.993,241.979,199.287,241.531,199.034,241.533z"/>
				<path style="fill:#62351D;" d="M192.382,259.547c-3.947-0.253-7.999-1.621-10.766-4.552c-2.639-2.797-3.92-7.023-2.632-10.73
					c0.073-0.209-0.248-0.009-0.287,0.091c-1.143,2.92-0.816,6.173,0.638,8.927c1.501,2.843,4.19,4.876,7.178,5.959
					c1.781,0.646,3.626,0.935,5.516,0.952C192.261,260.197,192.655,259.564,192.382,259.547z"/>
				<path style="fill:#62351D;" d="M196.959,12.146c-10.84-3.402-23.82-0.179-31.14,8.679c-1.9,2.299-3.531,4.963-4.056,7.935
					c-0.024,0.138,0.24-0.064,0.259-0.146c0.609-2.702,2.164-5.197,3.916-7.311c1.604-1.935,3.499-3.625,5.594-5.011
					c4.504-2.98,9.798-4.486,15.174-4.689c3.356-0.127,6.681,0.326,9.966,0.98C196.835,12.616,197.157,12.208,196.959,12.146z"/>
				<path style="fill:#62351D;" d="M209.153,202.682c-5.765-1.87-11.384-4.666-15.774-8.913c-4.38-4.238-7.27-9.926-7.547-16.065
					c-0.152-3.363,0.527-6.733,2.18-9.682c0.107-0.19-0.151-0.102-0.213,0.005c-3.069,5.308-3.12,11.792-0.994,17.452
					c2.209,5.881,6.83,10.532,12.17,13.692c3.065,1.813,6.351,3.164,9.773,4.139C208.997,203.379,209.445,202.776,209.153,202.682z"
					/>
			</g>
			<path style="fill:#62351D;" d="M198.581,16.902c0,0,25.16-0.968,33.224,29.353C232.127,30.128,220.515,12.064,198.581,16.902z"/>
			<path style="fill:#62351D;" d="M203.611,49.758c0,0,23.14,11.981,16.689,51.979c0,0,5.376-8.172,2.581-26.45
				c8.387,11.827,3.656,40.428,0.645,49.89C237.073,105.178,234.231,59.926,203.611,49.758z"/>
			<path style="fill:#62351D;" d="M226.106,60.234c0,0,18.279,25.375,7.311,63.868C242.234,106.898,243.094,75.072,226.106,60.234z"
				/>
			<path style="fill:#62351D;" d="M242.764,82.718c0,0,5.826,17.712,0.699,42.649C250.221,112.549,248.823,89.942,242.764,82.718z"
				/>
			<g>
				<path style="fill:#8E5B3A;" d="M178.904,245.923c-0.645-12.903,15.806-11.612,15.806-11.612l0.231-0.519
					c-1.394-0.055-2.682-0.208-3.779-0.448c-6.684-1.466-16.451,0.323-17.419,10.322c-0.968,9.999,8.387,19.676,19.354,18.064
					c2.078-0.306,3.971-0.497,5.692-0.584c0.04-0.129,0.072-0.253,0.114-0.383C191.161,261.084,179.648,260.799,178.904,245.923z"/>
			</g>
			<path style="fill:#62351D;" d="M220.1,195.954c0,0,20.813,17.129-1.473,37.389c0,0,10.498-1.842,12.893-14.735
				c1.289,6.815-1.658,13.998-4.789,17.497c10.314-6.078,10.146-20.836,6.999-28.18C229.309,197.612,220.1,195.954,220.1,195.954z"
				/>
		</g>
		<g>
			<g>
				<path style="fill:#CCBDB4;" d="M179.628,71.981c0,0,4.789-1.061,0.889-12.5c-4.839-14.193-27.228-37.967-33.921-29.43
					C146.596,30.051,170.335,43.769,179.628,71.981z"/>
				<path style="fill:#A0887B;" d="M179.628,72.224c-0.103,0-0.197-0.065-0.23-0.167c-9.155-27.796-32.686-41.659-32.923-41.796
					c-0.061-0.035-0.103-0.095-0.117-0.164c-0.013-0.069,0.004-0.14,0.047-0.196c1.23-1.571,3.013-2.174,5.306-1.782
					c9.414,1.598,25.096,19.728,29.035,31.284c2.207,6.473,1.634,9.675,0.765,11.221c-0.755,1.343-1.788,1.585-1.831,1.595
					C179.663,72.222,179.645,72.224,179.628,72.224z M146.962,29.989c2.544,1.56,24.059,15.394,32.818,41.681
					c0.297-0.133,0.861-0.477,1.32-1.307c0.81-1.464,1.326-4.525-0.814-10.804c-1.876-5.505-6.622-12.874-12.384-19.232
					c-6.014-6.636-12.098-11.021-16.274-11.73C149.636,28.258,148.069,28.727,146.962,29.989z"/>
			</g>
			<path style="fill:#CCBDB4;" d="M156.628,31.829c0,0,16.768,13.259,23.3,29.832C179.831,54.446,167.645,37.58,156.628,31.829z"/>
		</g>
	</g>
	<g>
		<path style="fill:#8E5B3A;" d="M164.856,131.314l-0.341,24.434c0,0,16.324-5.949,16.163-16.109
			C180.517,129.477,164.856,131.314,164.856,131.314z"/>
		<path style="fill:#62351D;" d="M164.515,155.99c-0.049,0-0.098-0.015-0.14-0.045c-0.065-0.046-0.103-0.121-0.102-0.201
			l0.341-24.434c0.002-0.122,0.094-0.224,0.214-0.238c0.372-0.043,9.115-1.018,13.582,2.891c1.629,1.427,2.474,3.334,2.511,5.67
			c0.067,4.24-2.743,8.414-8.128,12.07c-4.039,2.742-8.154,4.257-8.195,4.272C164.571,155.986,164.544,155.99,164.515,155.99z
			 M165.096,131.534l-0.333,23.858c2.304-0.915,15.817-6.674,15.673-15.75c-0.035-2.193-0.824-3.98-2.345-5.312
			C174.162,130.89,166.469,131.41,165.096,131.534z"/>
	</g>
	<path style="fill:#8E5B3A;" d="M164.856,131.314l-0.341,24.434c0,0,16.324-5.949,16.163-16.109
		C180.517,129.477,164.856,131.314,164.856,131.314z"/>
	<path style="fill:#8E5B3A;" d="M164.856,131.314l-0.341,24.434c0,0,16.324-5.949,16.163-16.109
		C180.517,129.477,164.856,131.314,164.856,131.314z"/>
	<g>
		<path style="fill:#B4715A;" d="M158.364,174.314c0.081-2.488,0.08-4.991,0.405-7.444c0.331-2.497,0.899-4.938,1.698-7.262
			c0.8-2.327,1.844-4.517,2.93-6.664c0.56-1.106,1.184-2.14,1.915-3.095c0.599-0.783,1.383-1.344,1.853-2.263
			c0.131-0.256-0.034-0.63-0.282-0.695c-1.28-0.337-2.464-0.073-3.527,0.544c0.018-0.025,0.036-0.049,0.053-0.074
			c0.075-0.127,0.138-0.261,0.216-0.385c2.286-3.671,5.791-6.566,9.841-6.784c1.728-0.093,3.489,0.279,5.043,1.297
			c1.431,0.938,2.609,2.338,3.522,3.924c0.959,1.666,1.658,3.51,2.199,5.395c0.564,1.969,1.009,4.012,1.223,6.057
			c0.527,5.032-0.261,10.189-2.046,14.664c-1.844,4.625-4.849,8.439-8.567,11.066c-1.728,1.22-3.582,2.223-5.526,2.925
			c-1.864,0.674-3.887,1.13-5.878,0.842c-1.89-0.274-3.692-1.292-4.767-3.237c-0.403-0.73-0.718-1.535-0.971-2.373
			C158.154,178.666,158.293,176.491,158.364,174.314z"/>
		<path style="fill:#FDD4B5;" d="M160.724,184.548c1.621,1.296,3.732,1.322,5.548,1.023c1.871-0.308,3.679-1.007,5.386-1.887
			c3.866-1.993,7.237-5.175,9.561-9.294c2.215-3.927,3.484-8.665,3.66-13.453c0.151-4.126-0.603-8.38-2.037-12.238
			c-1.26-3.392-3.332-6.629-6.529-7.584c-3.876-1.157-7.809,0.979-10.443,4.029c-0.008,0.01-0.015,0.02-0.024,0.03
			c0.05,0.082,0.06,0.175-0.014,0.264c-0.87,1.05-1.663,2.174-2.397,3.348c-0.203,0.394-0.394,0.796-0.575,1.204
			c-0.235,0.356-0.456,0.726-0.666,1.103c-0.871,1.387-1.591,2.91-2.074,4.546c-1.773,4.85-2.685,10.191-2.757,15.528
			c-0.036,2.65,0.179,5.302,0.739,7.905C158.537,181.096,159.158,183.295,160.724,184.548z"/>
		<path style="fill:#FDD4B5;" d="M183.869,160.854c-0.137-3.768-0.916-7.708-2.83-10.903c-2.221-3.71-5.623-6.578-9.516-6.659
			c-1.847-0.038-3.597,0.507-5.228,1.383c2.621-2.794,6.344-4.656,10.017-3.56c3.197,0.954,5.268,4.192,6.529,7.584
			c1.434,3.858,2.188,8.112,2.037,12.238c-0.127,3.478-0.839,6.925-2.063,10.058C183.605,167.726,183.994,164.29,183.869,160.854z"
			/>
		<path style="fill:#FDD4B5;" d="M157.363,171.168c0.072-5.338,0.984-10.678,2.757-15.528c0.483-1.636,1.203-3.159,2.074-4.546
			c0.21-0.377,0.431-0.747,0.666-1.103c0.181-0.408,0.372-0.811,0.575-1.204c0.734-1.174,1.527-2.299,2.397-3.348
			c0.074-0.089,0.064-0.182,0.014-0.264c0.008-0.01,0.015-0.02,0.024-0.03c0.538-0.624,1.134-1.206,1.769-1.733
			c-0.542,0.946-1.012,1.947-1.402,2.96c-0.986,2.56-1.692,5.629-1.037,8.5c0.13,0.57,0.755,0.424,0.88-0.019
			c0.887-3.165,2.96-5.826,5.836-6.482c2.16-0.493,4.454,0.376,5.989,2.348c2.018,2.594,2.399,6.433,2.152,9.689
			c-0.263,3.471-1.308,6.989-3.38,9.466c-2.143,2.56-5.134,3.248-8.143,2.207c-0.141-0.049-0.35,0.004-0.436,0.147
			c-1.297,2.168-1.889,5.722-0.302,8.068c1.07,1.582,2.586,2.564,4.278,2.662c0.317,0.018,0.632-0.001,0.944-0.038
			c-0.445,0.271-0.897,0.527-1.358,0.764c-1.707,0.88-3.515,1.579-5.386,1.887c-1.816,0.299-3.927,0.273-5.548-1.023
			c-1.566-1.253-2.188-3.451-2.623-5.475C157.542,176.47,157.327,173.818,157.363,171.168z"/>
		<path style="fill:#B4715A;" d="M165.799,174.875c-0.215-0.634-0.355-1.276-0.305-1.906c0.062-0.227,0.131-0.452,0.216-0.67
			c0.231-0.597,0.541-1.122,0.879-1.621c-0.013-0.018-0.025-0.037-0.039-0.054c0.132-0.181,0.266-0.36,0.402-0.538
			c0.015,0.006,0.031,0.009,0.045,0.016c0.537-0.727,1.107-1.427,1.561-2.238c0.48-0.858,0.86-1.878,0.303-2.862
			c-0.504-0.889-1.208-1.63-1.77-2.47c-1.084-1.618-1.674-3.52-1.604-5.535c0.125-3.578,2.034-6.477,4.73-7.903
			c2.477-1.31,5.602-1.554,7.768,0.918c1.151,1.314,1.993,3.045,2.514,4.796c0.492,1.659,0.752,3.466,0.343,5.14
			c-0.051,0.207-0.402,0.082-0.37-0.13c0.225-1.447-0.064-3.04-0.484-4.441c-0.464-1.549-1.14-3.045-2.066-4.305
			c-0.842-1.146-1.846-1.951-3.129-2.125c-1.367-0.185-2.742,0.204-3.962,0.83c-2.583,1.324-4.445,4.205-4.456,7.631
			c-0.007,1.988,0.652,3.708,1.758,5.249c0.547,0.763,1.213,1.475,1.637,2.342c0.378,0.773,0.346,1.576,0.066,2.353
			c-0.48,1.329-1.352,2.311-2.165,3.348c0.605,0.479,1.317,0.716,2.04,0.858c0.926,0.182,1.899,0.27,2.825,0.175
			c2.068-0.212,4.278-1.489,4.997-3.863c0.033-0.109,0.229-0.042,0.201,0.071c-0.649,2.657-2.777,4.194-5.057,4.495
			c-1.063,0.141-2.201,0.031-3.263-0.207c-0.697-0.156-1.544-0.413-2.206-0.913c-0.176,0.245-0.347,0.494-0.502,0.758
			c-0.424,0.721-0.721,1.518-0.86,2.391C165.824,174.6,165.813,174.737,165.799,174.875z"/>
	</g>
	<g>
		<path style="fill:#B4715A;" d="M33.342,172.24c-0.471-2.445-0.862-4.916-1.569-7.288c-0.719-2.414-1.664-4.736-2.818-6.906
			c-1.155-2.172-2.53-4.172-3.94-6.121c-0.726-1.005-1.505-1.927-2.377-2.756c-0.715-0.68-1.577-1.111-2.185-1.944
			c-0.169-0.232-0.065-0.627,0.169-0.73c1.211-0.533,2.422-0.459,3.568-0.017c-0.021-0.022-0.043-0.043-0.064-0.065
			c-0.094-0.113-0.177-0.236-0.273-0.347c-2.835-3.267-6.75-5.576-10.784-5.155c-1.721,0.179-3.401,0.823-4.777,2.073
			c-1.266,1.151-2.21,2.719-2.862,4.429c-0.685,1.796-1.087,3.727-1.324,5.673c-0.248,2.033-0.367,4.12-0.257,6.174
			c0.27,5.052,1.858,10.021,4.323,14.161c2.547,4.278,6.113,7.573,10.198,9.583c1.898,0.934,3.887,1.633,5.916,2.021
			c1.946,0.372,4.016,0.506,5.937-0.092c1.824-0.567,3.444-1.855,4.2-3.945c0.284-0.785,0.469-1.629,0.587-2.496
			C34.232,176.505,33.754,174.378,33.342,172.24z"/>
		<path style="fill:#FDD4B5;" d="M32.618,182.717c-1.397,1.535-3.479,1.892-5.319,1.881c-1.896-0.01-3.792-0.417-5.616-1.018
			c-4.131-1.361-7.96-3.975-10.901-7.678c-2.805-3.531-4.802-8.01-5.726-12.712c-0.797-4.051-0.72-8.37,0.09-12.406
			c0.712-3.548,2.25-7.07,5.257-8.515c3.646-1.752,7.866-0.26,10.946,2.34c0.01,0.008,0.019,0.018,0.028,0.026
			c-0.036,0.089-0.032,0.182,0.055,0.258c1.024,0.9,1.984,1.886,2.893,2.931c0.263,0.357,0.514,0.725,0.757,1.099
			c0.288,0.315,0.564,0.646,0.831,0.985c1.078,1.233,2.028,2.624,2.762,4.164c2.512,4.512,4.252,9.642,5.161,14.902
			c0.451,2.611,0.656,5.264,0.511,7.923C34.236,178.965,33.968,181.234,32.618,182.717z"/>
		<path style="fill:#FDD4B5;" d="M6.04,162.951c-0.457-3.743-0.305-7.756,1.083-11.212c1.611-4.012,4.521-7.38,8.352-8.07
			c1.818-0.328,3.632-0.064,5.38,0.545c-3.027-2.348-6.996-3.603-10.451-1.943c-3.007,1.445-4.545,4.967-5.257,8.515
			c-0.81,4.036-0.887,8.355-0.09,12.406c0.672,3.415,1.915,6.707,3.617,9.61C7.38,169.697,6.457,166.364,6.04,162.951z"/>
		<path style="fill:#FDD4B5;" d="M33.837,168.976c-0.909-5.26-2.649-10.391-5.161-14.903c-0.734-1.54-1.684-2.931-2.762-4.164
			c-0.267-0.34-0.543-0.67-0.831-0.985c-0.243-0.374-0.494-0.742-0.757-1.099c-0.909-1.045-1.869-2.031-2.893-2.931
			c-0.087-0.076-0.091-0.169-0.055-0.258c-0.01-0.008-0.018-0.018-0.028-0.026c-0.63-0.532-1.309-1.013-2.02-1.434
			c0.684,0.849,1.305,1.764,1.849,2.703c1.375,2.373,2.555,5.294,2.359,8.232c-0.039,0.583-0.679,0.537-0.872,0.12
			c-1.373-2.986-3.838-5.289-6.781-5.486c-2.21-0.147-4.34,1.071-5.546,3.26c-1.586,2.878-1.359,6.73-0.604,9.906
			c0.805,3.387,2.389,6.698,4.825,8.818c2.518,2.192,5.58,2.402,8.389,0.901c0.132-0.07,0.347-0.051,0.454,0.077
			c1.621,1.937,2.764,5.354,1.565,7.921c-0.808,1.73-2.151,2.938-3.807,3.301c-0.31,0.068-0.624,0.098-0.938,0.11
			c0.482,0.197,0.969,0.38,1.461,0.542c1.824,0.601,3.72,1.007,5.616,1.018c1.84,0.01,3.922-0.347,5.319-1.881
			c1.35-1.483,1.619-3.752,1.731-5.819C34.493,174.24,34.288,171.587,33.837,168.976z"/>
		<path style="fill:#B4715A;" d="M26.087,173.961c0.113-0.66,0.15-1.316,0.002-1.93c-0.097-0.215-0.2-0.425-0.318-0.628
			c-0.322-0.553-0.71-1.023-1.123-1.463c0.01-0.02,0.019-0.04,0.03-0.06c-0.158-0.158-0.319-0.314-0.481-0.468
			c-0.014,0.008-0.029,0.014-0.042,0.023c-0.645-0.634-1.317-1.235-1.893-1.965c-0.609-0.772-1.145-1.72-0.748-2.779
			c0.358-0.957,0.937-1.8,1.361-2.718c0.816-1.768,1.101-3.74,0.715-5.719c-0.685-3.514-3.026-6.077-5.913-7.063
			c-2.652-0.905-5.777-0.655-7.527,2.126c-0.93,1.478-1.491,3.32-1.729,5.131c-0.226,1.716-0.199,3.541,0.468,5.13
			c0.083,0.196,0.41,0.018,0.345-0.186c-0.45-1.394-0.414-3.012-0.22-4.462c0.215-1.603,0.648-3.187,1.364-4.577
			c0.652-1.264,1.517-2.217,2.757-2.59c1.32-0.398,2.74-0.229,4.043,0.198c2.759,0.902,5.05,3.455,5.599,6.837
			c0.319,1.962-0.062,3.764-0.912,5.46c-0.421,0.839-0.966,1.647-1.249,2.57c-0.252,0.823-0.094,1.611,0.305,2.335
			c0.682,1.238,1.698,2.07,2.664,2.967c-0.523,0.568-1.188,0.914-1.88,1.168c-0.885,0.325-1.833,0.565-2.762,0.616
			c-2.076,0.115-4.459-0.799-5.541-3.031c-0.05-0.102-0.233-0.005-0.188,0.102c1.058,2.522,3.401,3.706,5.701,3.646
			c1.072-0.028,2.179-0.315,3.19-0.717c0.664-0.264,1.46-0.65,2.035-1.248c0.212,0.214,0.42,0.434,0.615,0.67
			c0.532,0.645,0.95,1.386,1.225,2.226C26.02,173.693,26.052,173.827,26.087,173.961z"/>
	</g>
	<g>
		<path style="fill:#FDD4B5;" d="M72.127,66.354c0,0-46.55,5.997-45.122,60.258c5.997,61.971,3.998,74.537,29.129,92.814
			c26.845,21.419,33.127,24.56,43.408,24.56c10.281,0,20.562-7.711,40.267-23.132c12.851-10.852,22.561-19.991,23.703-44.551
			c1.142-24.56,3.788-55.06-3.141-81.105C152.089,64.069,101.256,61.499,72.127,66.354z"/>
		<path style="fill:#B4715A;" d="M99.542,244.228c-10.157,0-16.343-2.898-43.56-24.613c-22.255-16.186-23.341-28.238-27.378-73.077
			c-0.532-5.913-1.136-12.615-1.841-19.903c-0.741-28.152,11.623-43.106,22.125-50.696c11.281-8.154,22.894-9.783,23.202-9.824
			c17.264-2.876,36.713-2.528,52.03,0.931c20.193,4.561,32.81,14.274,36.485,28.09c6.153,23.128,4.786,49.415,3.581,72.609
			c-0.152,2.923-0.301,5.785-0.43,8.57c-1.11,23.857-10.14,33.197-23.79,44.725C119.952,236.702,109.877,244.228,99.542,244.228z
			 M96.126,64.664c-8.045,0-16.222,0.64-23.959,1.929c-0.003,0-0.006,0.001-0.008,0.001c-0.117,0.015-11.724,1.591-23.002,9.749
			c-10.4,7.523-22.642,22.349-21.908,50.261c0.704,7.272,1.308,13.975,1.84,19.889c4.022,44.667,5.103,56.673,27.189,72.735
			c27.108,21.629,33.244,24.513,43.265,24.513c10.175,0,20.201-7.493,40.118-23.081c13.545-11.438,22.51-20.709,23.611-44.37
			c0.13-2.786,0.278-5.649,0.431-8.572c1.204-23.158,2.569-49.405-3.565-72.459c-4.582-17.22-22.174-24.59-36.124-27.742
			C115.616,65.622,105.97,64.664,96.126,64.664z M72.127,66.354h0.006H72.127z"/>
	</g>
	<g>
		<path style="fill:#FDD4B5;" d="M82.058,133.503c0,0-31.396-12.257-47.74,2.15c6.021-10.322,23.756-14.935,42.149-11.397
			C81.587,125.24,84.075,127.941,82.058,133.503z"/>
		<path style="fill:#FDD4B5;" d="M82.826,125.36c-0.079-0.147-0.382,0.162-0.325,0.288c1.006,2.236,1.885,4.833,0.735,7.191
			c-0.173,0.355,0.283,0.202,0.396,0.008C85.059,130.411,84.052,127.642,82.826,125.36z"/>
		<path style="fill:#FDD4B5;" d="M85.123,128.647c-0.061-0.169-0.385,0.171-0.354,0.312c0.176,0.793,0.254,1.591,0.208,2.402
			c-0.045,0.786-0.253,1.531-0.458,2.286c-0.029,0.105,0.026,0.156,0.126,0.139c0.118-0.02,0.222-0.159,0.271-0.256
			C85.65,132.076,85.669,130.166,85.123,128.647z"/>
	</g>
	<g>
		<path style="fill:#FDD4B5;" d="M160.371,95.197c-8.282-31.128-59.115-33.699-88.245-28.844c0,0-46.55,5.997-45.122,60.258
			c0,0,11.207-40.237,54.297-39.173c34.578,2.128,42.558,13.831,51.601,27.663c-13.299,0-24.825,9.892-21.722,14.522
			c22.786-3.882,45.632-3.303,47.508,16.091c1.876,19.393,2.94,40.14-7.699,57.163s-32.982,31.387-45.218,36.174
			c-12.236,4.788-22.875-3.192-39.366-15.427c-14.936-11.082-22.454-14.309-28.877-25.096c3.648,8.072,9.243,14.089,18.605,20.897
			c26.845,21.419,33.127,24.56,43.408,24.56c10.281,0,20.562-7.711,40.267-23.132c12.851-10.852,22.561-19.991,23.703-44.551
			C164.655,151.743,167.301,121.242,160.371,95.197z"/>
	</g>
	<path style="fill:#FDD4B5;" d="M81.944,168.416c0,0,3.149-21.357-12.557-29.37c-16.13-8.229-27.574,2.668-29.792,14.314
		C38.485,161.679,55.786,183.013,81.944,168.416z"/>
	<path style="fill:#FDD4B5;" d="M115.174,168.416c0,0-3.149-21.357,12.557-29.37c16.13-8.229,27.574,2.668,29.793,14.314
		C158.633,161.679,141.332,183.013,115.174,168.416z"/>
	<g>
		<path d="M78.435,157.767c-0.484-1.762-1.108-3.467-1.94-5.05c-1.335-2.544-3.105-4.878-5.314-6.726
			c-5.116-4.28-12.03-5.134-18.404-3.717c-3.871,0.86-6.236,0.322-6.236,0.322s1.828,1.398,3.118,1.613
			c-5.484,1.29-9.032,2.688-11.72,1.505c2.796,1.828,4.086,1.828,4.086,1.828s-3.656,3.226-8.494,2.258
			c3.441,2.365,8.172,1.935,8.172,1.935s-2.849,6.451,4.086,11.935c6.154,4.866,13.765,6.822,21.54,6.366
			c4.278-0.251,8.716-1.033,12.768-2.443C79.734,164.375,79.316,160.975,78.435,157.767z"/>
		<path style="fill:#1B0101;" d="M37.106,155.76c1.571,0.115,3.179-0.349,4.447-1.283c-1.157,1.213-2.749,2.003-4.416,2.191
			c1.606,0.238,3.293-0.108,4.676-0.958c-1.207,1.051-2.677,1.798-4.238,2.152c1.662-0.05,3.311-0.489,4.778-1.273
			c-0.813,0.887-1.625,1.773-2.438,2.66c0.782-0.13,1.537-0.416,2.209-0.836c-0.478,0.67-1.073,1.257-1.75,1.725
			c0.886-0.192,1.772-0.383,2.657-0.575c-0.594,0.567-1.189,1.134-1.783,1.701c0.949-0.228,1.898-0.455,2.848-0.683
			c-2.167,1.004-4.05,2.612-5.381,4.595c1.549-1.863,3.74-3.182,6.111-3.681c-2.595,1.754-4.856,4.001-6.625,6.586
			c1.856-2.176,4.264-3.879,6.934-4.903c-0.648,0.747-1.296,1.493-1.943,2.24c0.873-0.774,1.954-1.312,3.098-1.542
			c-0.589,0.736-1.177,1.472-1.766,2.208c0.908-0.633,2.017-0.975,3.124-0.962c-0.363,0.398-0.726,0.797-1.089,1.195
			c0.62-0.38,1.331-0.611,2.057-0.667c-0.613,0.972-1.226,1.944-1.839,2.917c0.657-0.831,1.567-1.46,2.577-1.781
			c1.804-0.317,3.266,0.652,3.847,0.426c-0.556-1.645-4.219-2.831-5.543-3.955c-2.331-1.979-4.066-4.638-4.984-7.551
			c-0.218-0.691-0.226-1.65-0.54-2.28c-0.462-0.927-0.34-0.686-1.112,0.035C39.872,154.532,38.662,155.378,37.106,155.76z"/>
	</g>
	<g>
		<path d="M118.179,157.762c3.064-11.575,13.588-18.005,25.673-15.49c3.871,0.86,6.236,0.322,6.236,0.322s-1.828,1.398-3.118,1.613
			c5.484,1.29,9.032,2.688,11.72,1.505c-2.796,1.828-4.086,1.828-4.086,1.828s3.656,3.226,8.494,2.258
			c-3.441,2.365-8.172,1.935-8.172,1.935s2.849,6.451-4.086,11.935c-6.935,5.484-17.315,9.127-34.382,3.918
			c-0.071-0.022,1.073-6.604,1.188-7.313C117.786,159.413,117.964,158.575,118.179,157.762z"/>
		<path style="fill:#1B0101;" d="M159.697,155.76c-1.571,0.115-3.178-0.349-4.447-1.283c1.157,1.213,2.749,2.003,4.416,2.191
			c-1.606,0.238-3.293-0.108-4.676-0.958c1.207,1.051,2.677,1.798,4.238,2.152c-1.662-0.05-3.312-0.489-4.778-1.273
			c0.813,0.887,1.625,1.773,2.438,2.66c-0.782-0.13-1.537-0.416-2.209-0.836c0.478,0.67,1.073,1.257,1.75,1.725
			c-0.886-0.192-1.772-0.383-2.658-0.575c0.594,0.567,1.189,1.134,1.783,1.701c-0.949-0.228-1.898-0.455-2.848-0.683
			c2.167,1.004,4.05,2.612,5.381,4.595c-1.549-1.863-3.74-3.182-6.111-3.681c2.595,1.754,4.856,4.001,6.626,6.586
			c-1.856-2.176-4.264-3.879-6.935-4.903c0.648,0.747,1.296,1.493,1.943,2.24c-0.873-0.774-1.954-1.312-3.098-1.542
			c0.589,0.736,1.177,1.472,1.766,2.208c-0.908-0.633-2.017-0.975-3.124-0.962c0.363,0.398,0.726,0.797,1.089,1.195
			c-0.62-0.38-1.331-0.611-2.057-0.667c0.613,0.972,1.226,1.944,1.839,2.917c-0.657-0.831-1.567-1.46-2.577-1.781
			c-1.805-0.317-3.266,0.652-3.847,0.426c0.556-1.645,4.219-2.831,5.543-3.955c2.331-1.979,4.066-4.638,4.984-7.551
			c0.218-0.691,0.226-1.65,0.54-2.28c0.462-0.927,0.34-0.686,1.112,0.035C156.932,154.532,158.142,155.378,159.697,155.76z"/>
	</g>
	<g>
		<path style="fill:#62351D;" d="M80.522,131.198c0,0-31.396-12.257-47.74,2.15c6.021-10.322,23.756-14.935,42.148-11.397
			C80.05,122.936,82.538,125.637,80.522,131.198z"/>
		<path style="fill:#62351D;" d="M81.289,123.055c-0.079-0.147-0.382,0.162-0.325,0.288c1.006,2.236,1.885,4.833,0.735,7.191
			c-0.173,0.355,0.283,0.202,0.396,0.008C83.522,128.106,82.515,125.338,81.289,123.055z"/>
		<path style="fill:#62351D;" d="M83.587,126.342c-0.061-0.169-0.385,0.172-0.354,0.312c0.176,0.793,0.254,1.591,0.208,2.402
			c-0.045,0.786-0.253,1.531-0.458,2.286c-0.028,0.105,0.026,0.156,0.126,0.139c0.118-0.02,0.222-0.159,0.271-0.256
			C84.113,129.771,84.132,127.861,83.587,126.342z"/>
	</g>
	<g>
		<path style="fill:#62351D;" d="M113.642,129.477c0,0,31.396-12.257,47.74,2.15c-6.021-10.322-23.756-14.935-42.148-11.397
			C114.114,121.215,111.626,123.916,113.642,129.477z"/>
		<path style="fill:#62351D;" d="M112.875,121.335c0.079-0.147,0.382,0.161,0.325,0.288c-1.006,2.236-1.885,4.833-0.735,7.191
			c0.173,0.355-0.283,0.202-0.396,0.008C110.642,126.385,111.649,123.617,112.875,121.335z"/>
		<path style="fill:#62351D;" d="M110.577,124.622c0.061-0.169,0.385,0.172,0.354,0.312c-0.176,0.793-0.254,1.591-0.208,2.402
			c0.045,0.786,0.253,1.531,0.458,2.286c0.029,0.105-0.026,0.156-0.126,0.139c-0.118-0.02-0.222-0.159-0.271-0.256
			C110.051,128.05,110.032,126.141,110.577,124.622z"/>
	</g>
	<g>
		<path style="fill:#E4E5E6;" d="M116.459,167.587c0,0-0.153-22.717,20.735-23.48c12.655,0.153,16.314,7.623,16.466,10.673
			S147.867,173.839,116.459,167.587z"/>
		<path style="fill:#D6A174;" d="M129.716,169.264c-3.807,0-8.212-0.425-13.304-1.439c-0.113-0.022-0.194-0.121-0.195-0.236
			c-0.002-0.229,0.087-22.961,20.97-23.724c13.211,0.159,16.578,8.125,16.717,10.903c0.067,1.367-1.062,5.285-4.986,8.671
			C145.544,166.351,139.677,169.264,129.716,169.264z M116.704,167.389c18.095,3.558,27.332-0.378,31.896-4.317
			c3.789-3.27,4.882-6.99,4.818-8.28c-0.133-2.659-3.4-10.288-16.227-10.442C117.825,145.057,116.761,165.168,116.704,167.389z"/>
	</g>
	<path style="fill:#FFFFFF;" d="M118.906,166.137c0,0-0.132-19.729,18.007-20.391c10.99,0.132,14.168,6.62,14.3,9.269
		S146.182,171.566,118.906,166.137z"/>
	<path style="fill:#B4715A;" d="M146.768,140.22c-4.567-2.148-10.177-2.016-14.909-0.513c-4.296,1.364-8.131,4.089-10.976,7.657
		c-1.521,1.908-2.871,4.122-3.624,6.476c-0.046,0.143,0.157-0.007,0.181-0.063c0.909-2.063,1.921-4.029,3.288-5.816
		c1.345-1.757,2.922-3.321,4.692-4.62c3.79-2.779,8.373-4.235,13.024-4.218c2.768,0.01,5.471,0.61,8.112,1.423
		C146.67,140.579,146.903,140.283,146.768,140.22z"/>
	<g>
		<path style="fill:#E4E5E6;" d="M80.17,167.587c0,0,0.152-22.717-20.735-23.48c-12.655,0.153-16.314,7.623-16.466,10.673
			C42.816,157.83,48.762,173.839,80.17,167.587z"/>
		<path style="fill:#D6A174;" d="M66.913,169.264c-9.964,0-15.831-2.914-19.204-5.827c-3.924-3.387-5.052-7.303-4.984-8.669
			c0.139-2.778,3.507-10.744,16.706-10.903c20.894,0.763,20.983,23.495,20.981,23.724c-0.001,0.115-0.082,0.214-0.195,0.236
			C75.125,168.839,70.719,169.264,66.913,169.264z M59.426,144.35c-12.816,0.154-16.083,7.783-16.215,10.443
			c-0.064,1.289,1.028,5.008,4.815,8.278c4.564,3.94,13.798,7.879,31.899,4.319C79.868,165.168,78.804,145.057,59.426,144.35z
			 M80.17,167.588h0.006H80.17z"/>
	</g>
	<path style="fill:#FFFFFF;" d="M77.996,166.3c0,0,0.135-20.063-18.313-20.736c-11.176,0.135-14.408,6.733-14.542,9.426
		C45.007,157.682,50.258,171.82,77.996,166.3z"/>
	<path style="fill:#B4715A;" d="M49.86,140.22c4.567-2.148,10.177-2.016,14.909-0.513c4.296,1.364,8.131,4.089,10.976,7.657
		c1.521,1.908,2.871,4.122,3.624,6.476c0.046,0.143-0.157-0.007-0.181-0.063c-0.909-2.063-1.921-4.029-3.288-5.816
		c-1.345-1.757-2.922-3.321-4.692-4.62c-3.79-2.779-8.373-4.235-13.024-4.218c-2.768,0.01-5.471,0.61-8.112,1.423
		C49.958,140.579,49.726,140.283,49.86,140.22z"/>
	<g>
		<path style="opacity:0.6;fill:#FDD4B5;" d="M109.789,189.02c-0.253-0.186-0.547-0.563-0.878-1.064
			c-0.876,1.78-2.158,3.482-3.951,4.368c-2.172,1.073-4.53,0.496-6.429-0.87c-2.69-1.936-4.622-4.771-4.266-8.189
			c0.15-1.434,0.627-2.808,1.216-4.119c-0.002,0.002-0.004,0.003-0.006,0.005c-0.313,0.295-8.173,9.464-9.464,14.483
			c-1.291,5.019,2.724,6.166,7.6,6.022c2.724,0,3.871,1.721,7.313,0c2.294-1.147,7.887-0.574,9.894-2.725
			C112.826,194.781,111.94,190.598,109.789,189.02z"/>
		<path style="fill:#FDD4B5;" d="M92.611,182.759c0,0-6.874,8.636-6.169,13.395c1.058,4.23,14.981,4.935,23.969,2.291
			c2.115-1.057,2.468-5.111-4.759-4.582C98.427,194.392,86.971,196.683,92.611,182.759z"/>
		<path style="fill:#B4715A;" d="M100.655,199.558c-3.62,0.547-7.612,0.485-11.084-0.788c-1.349-0.494-2.749-1.296-3.424-2.622
			c-0.902-1.771-0.129-3.784,0.73-5.409c0.994-1.883,2.316-3.585,3.621-5.259c0.109-0.139,0.014-0.23-0.103-0.09
			c-1.262,1.505-2.535,3.01-3.53,4.711c-0.916,1.565-1.851,3.461-1.558,5.329c0.551,3.515,5.137,4.443,8.022,4.805
			c2.383,0.299,4.771,0.221,7.126-0.245C100.605,199.959,100.889,199.523,100.655,199.558z"/>
		<path style="fill:#B4715A;" d="M111.873,193.533c-0.25-1.052-0.705-2.046-1.254-2.974c-0.035-0.06-0.168,0.077-0.143,0.129
			c0.398,0.827,0.69,1.695,0.885,2.591c0.185,0.853,0.346,1.751,0.271,2.626c-0.183,2.132-2.597,2.326-4.177,2.993
			c-0.12,0.051-0.406,0.521-0.166,0.453c1.791-0.506,4.112-0.845,4.721-2.943C112.28,195.482,112.091,194.451,111.873,193.533z"/>
		<path style="fill:#E2AB86;" d="M102.169,198.859c0,0,0.774-2.708,3.537-2.874C108.47,195.819,110.57,198.472,102.169,198.859z"/>
		<path style="fill:#E2AB86;" d="M96.48,199.08c0,0-0.774-2.708-3.537-2.874C90.179,196.04,88.079,198.693,96.48,199.08z"/>
		<path style="fill:#FDD1AB;" d="M106.083,185.537c0.532,1.249,0.37,2.514-0.361,2.825c-0.731,0.311-1.755-0.449-2.287-1.698
			c-0.532-1.249-0.37-2.514,0.361-2.825C104.527,183.527,105.551,184.288,106.083,185.537z"/>
	</g>
	<g>
		<path style="fill:#8E5B3A;" d="M71.762,50.748c-17.798,4.779-11.42,23.876-7.955,31.689c0.09-0.016,0.173-0.038,0.264-0.054
			c0,0,1.29-3.871,5.484-1.935c4.193,1.935,5.161-1.935,9.032-0.968c3.871,0.968,11.935-0.968,18.064,2.903
			c9.633-2.408,17.299-1.158,24.048,7.147C110.886,70.014,93.642,44.872,71.762,50.748z"/>
		<path style="fill:#62351D;" d="M120.698,89.772c-0.071,0-0.14-0.031-0.188-0.09c-6.161-7.583-13.278-9.696-23.8-7.064
			c-0.063,0.015-0.131,0.005-0.189-0.03c-4.026-2.543-8.942-2.543-12.892-2.543c-2.029,0-3.782,0-5.101-0.33
			c-1.689-0.422-2.773,0.111-3.92,0.677c-1.367,0.674-2.783,1.37-5.154,0.275c-1.258-0.581-2.364-0.675-3.283-0.28
			c-1.355,0.583-1.864,2.057-1.869,2.072c-0.028,0.084-0.101,0.147-0.189,0.162l-0.262,0.053c-0.107,0.021-0.218-0.038-0.264-0.14
			c-2.506-5.649-6.156-16.283-2.46-24.024c1.876-3.927,5.434-6.618,10.574-7.998l0.063,0.234l-0.063-0.234
			c11.921-3.204,30.133,0.951,49.215,38.907c0.055,0.111,0.019,0.245-0.085,0.313C120.789,89.759,120.743,89.772,120.698,89.772z
			 M104.609,81.049c5.964,0,10.713,2.199,14.965,6.811c-18.599-36.013-36.194-39.984-47.75-36.878
			c-4.998,1.342-8.45,3.946-10.261,7.739c-3.562,7.458-0.108,17.748,2.359,23.378c0.204-0.472,0.808-1.615,2.051-2.153
			c1.051-0.456,2.291-0.361,3.683,0.282c2.164,0.998,3.412,0.383,4.737-0.27c1.175-0.579,2.389-1.177,4.251-0.713
			c3.779,0.944,11.849-0.969,18.047,2.878C99.563,81.412,102.186,81.049,104.609,81.049z"/>
	</g>
	<path style="fill:#8E5B3A;" d="M108.515,78.606c-1.237-0.032-2.472-0.184-3.673-0.487c-1.367-0.345-2.56-0.939-3.805-1.589
		c-1.371-0.716-2.812-1.454-4.367-1.644c-1.759-0.215-3.423,0.353-4.905,1.277c-0.465,0.29-0.693-0.6-0.653-0.906
		c0.338-2.623,1.02-5.33,2.545-7.532c1.177-1.699,2.803-2.889,4.689-3.555c-1.035-0.306-2.113-0.462-3.194-0.44
		c-3.191,0.064-6.298,1.327-8.854,3.193c-2.476,1.807-4.642,4.337-5.453,7.345c-0.19,0.705-0.714,0.048-0.664-0.397
		c0.202-1.786,0.464-3.569,0.909-5.313c0.647-2.535,1.717-4.935,3.412-6.946c0.96-1.139,2.083-2.127,3.292-3.001
		c-0.482,0.149-0.965,0.297-1.447,0.449C80.215,60.986,73.8,63.414,70.095,69c-0.132,0.199-0.651,0.424-0.58-0.007
		c0.398-2.398,1.022-4.858,2.118-7.052c-2.775,3.029-5.313,6.303-4.917,10.628c0.028,0.301-0.721,0.633-0.775,0.275
		c-0.34-2.294-0.71-4.586-0.94-6.894c-0.371-3.727-0.404-7.609,0.944-11.16c0.28-0.739,0.631-1.432,1.018-2.099
		c-11.686,6.707-6.26,22.749-3.156,29.747c0.09-0.016,0.173-0.038,0.264-0.054c0,0,1.29-3.871,5.484-1.935
		c4.193,1.935,5.161-1.935,9.032-0.968c3.871,0.968,11.935-0.968,18.064,2.903c9.633-2.408,17.299-1.158,24.048,7.147
		c-1.896-3.771-4.072-7.751-6.503-11.678C112.348,78.394,110.42,78.655,108.515,78.606z"/>
	<g>
		<g>
			<path style="fill:#8E5B3A;" d="M51.287,79.677c-9.603,2.744-30.518,21.069-22.272,66.733c-0.138-1.903-0.29-4.003-0.456-6.327
				c-1.158-16.218,2.595-51.793,35.1-57.615C62.033,80.512,58.32,77.668,51.287,79.677z"/>
			<path style="fill:#62351D;" d="M29.015,146.653c-0.116,0-0.218-0.083-0.239-0.199c-2.481-13.737-3.719-33.495,4.465-49.615
				c5.373-10.583,13.043-15.985,17.979-17.395l0,0c7.199-2.055,11.001,0.915,12.625,2.869c0.055,0.066,0.071,0.157,0.041,0.238
				c-0.029,0.081-0.099,0.14-0.185,0.155c-14.104,2.526-24.195,10.858-29.992,24.764c-5.733,13.75-5.206,28.425-4.909,32.596
				c0.166,2.324,0.317,4.423,0.456,6.327c0.009,0.128-0.083,0.242-0.211,0.258C29.035,146.653,29.024,146.653,29.015,146.653z
				 M51.353,79.91L51.353,79.91c-8.065,2.305-28.729,18.363-22.99,60.825c-0.015-0.209-0.03-0.422-0.046-0.635
				c-0.371-5.19-2.526-50.753,34.879-57.794C61.512,80.461,57.906,78.041,51.353,79.91z"/>
		</g>
		<path style="fill:#8E5B3A;" d="M51.287,79.677c-9.603,2.744-30.518,21.069-22.272,66.733c-0.138-1.903-0.29-4.003-0.456-6.327
			c-1.158-16.218,2.595-51.793,35.1-57.615C62.033,80.512,58.32,77.668,51.287,79.677z"/>
		<g>
			<path style="fill:#8E5B3A;" d="M187.291,110.124c13.87,0.968,20.644-6.129,20.644-6.129s-12.257,4.516-22.902-2.258
				c1.29-25.805-10.585-59.611-36.412-71.71C131.868,11.412,80.679,3.734,52.06,31.888C38.564,34.913,8.782,60.507,5.757,94.013
				c-2.094,23.733,0.233,51.189,24.431,67.942c0,0-0.342-4.111-1.173-15.544c-8.246-45.665,12.669-63.99,22.272-66.733
				c7.033-2.009,10.746,0.835,12.372,2.791c0.051-0.009,0.097-0.022,0.148-0.031c-3.465-7.813-9.843-26.91,7.955-31.689
				c21.88-5.875,39.125,19.266,48.936,38.782c0.483,0.594,0.961,1.218,1.435,1.885c7.096,9.999,22.257,32.257,46.127,43.224
				c20.967,11.612,29.353,33.869,23.225,50.965c5.161-7.742,5.806-13.548,5.806-13.548s0.551,1.818-0.009,4.617
				c-0.56,2.799,13.879-13.649,9.041-32.035C211.161,134.639,209.87,124.639,187.291,110.124z"/>
			<path style="fill:#62351D;" d="M191.484,185.846c-0.037,0-0.074-0.009-0.109-0.026c-0.11-0.055-0.161-0.183-0.119-0.298
				c6.457-18.012-3.479-39.796-23.114-50.671c-23.075-10.601-38.174-31.943-45.431-42.2l-0.776-1.096
				c-0.449-0.633-0.915-1.245-1.426-1.872c-18.961-37.706-36.934-41.855-48.685-38.701c-4.998,1.342-8.45,3.946-10.261,7.739
				c-3.614,7.566-0.007,18.045,2.465,23.618c0.03,0.069,0.027,0.147-0.008,0.213c-0.036,0.066-0.099,0.112-0.173,0.125l-0.147,0.03
				c-0.08,0.015-0.172-0.017-0.228-0.084c-1.549-1.863-5.186-4.692-12.119-2.712c-8.413,2.404-30.529,19.773-22.1,66.457
				c0.824,11.326,1.174,15.526,1.176,15.567c0.008,0.094-0.039,0.183-0.12,0.23c-0.081,0.046-0.182,0.043-0.26-0.01
				C4.245,144.29,3.689,114.697,5.515,93.992c1.326-14.683,8.174-29.822,19.284-42.63c10.087-11.63,20.882-18.262,27.14-19.695
				c17.281-16.961,40.03-18.886,52.081-18.517c18.549,0.564,36.107,7.109,44.75,16.678c11.956,5.616,21.792,16.27,28.447,30.814
				c5.775,12.618,8.712,27.54,8.066,40.966c10.395,6.524,22.448,2.204,22.57,2.16c0.102-0.039,0.224-0.001,0.286,0.094
				c0.062,0.094,0.05,0.219-0.027,0.301c-0.067,0.07-6.693,6.858-19.919,6.256c23.258,15.18,22.626,25.432,18.388,34.245
				c4.139,15.927-6.207,30.554-8.645,32.329c-0.207,0.149-0.509,0.329-0.741,0.18c-0.153-0.098-0.204-0.281-0.151-0.546
				c0.257-1.286,0.274-2.363,0.22-3.141c-0.511,2.196-1.92,6.766-5.577,12.253C191.639,185.808,191.563,185.846,191.484,185.846z
				 M78.185,49.648c11.553,0,26.84,8.166,42.729,39.772c0.488,0.591,0.961,1.212,1.416,1.854l0.776,1.096
				c7.232,10.221,22.281,31.492,45.254,42.047c19.198,10.632,29.213,31.585,23.948,49.443c4.134-6.789,4.734-11.778,4.741-11.832
				c0.012-0.114,0.104-0.204,0.219-0.215c0.115-0.006,0.22,0.061,0.254,0.171c0.023,0.076,0.558,1.895,0.004,4.703
				c0.402-0.237,1.422-1.237,2.781-3.206c4.673-6.775,8.646-17.893,5.78-28.782c-0.014-0.056-0.009-0.115,0.017-0.167
				c4.222-8.726,4.849-18.909-18.944-34.205c-0.094-0.06-0.135-0.175-0.1-0.28c0.035-0.105,0.126-0.177,0.247-0.166
				c10.908,0.764,17.441-3.554,19.627-5.324c-3.254,0.906-13.242,2.978-22.032-2.616c-0.074-0.047-0.117-0.13-0.113-0.217
				c0.67-13.387-2.252-28.288-8.015-40.882c-4.613-10.08-13.26-23.571-28.258-30.597c-0.029-0.014-0.055-0.034-0.077-0.057
				c-8.547-9.496-25.989-15.994-44.437-16.555c-11.983-0.359-34.617,1.548-51.774,18.427c-0.033,0.032-0.073,0.054-0.118,0.064
				c-6.171,1.383-16.896,7.966-26.948,19.554C14.122,64.411,7.315,79.453,5.998,94.035c-1.805,20.471-1.277,49.676,23.907,67.426
				c-0.115-1.422-0.47-5.919-1.132-15.033c-2.478-13.711-3.716-33.47,4.468-49.589c5.373-10.583,13.043-15.985,17.979-17.395
				c6.345-1.812,10.051,0.28,11.953,2.14c-2.464-5.831-5.546-15.747-2.047-23.073c1.875-3.927,5.433-6.618,10.573-7.998
				C73.693,49.978,75.865,49.648,78.185,49.648z M197.509,176.829C197.509,176.83,197.509,176.83,197.509,176.829L197.509,176.829z"
				/>
		</g>
	</g>
	<g>
		<path style="fill:#62351D;" d="M140.98,75.242c-2.537-4.102-5.096-8.195-7.688-12.264c-2.555-4.012-5.194-7.979-8.175-11.691
			c-5.15-6.411-11.534-12.178-19.287-15.198c-8.76-3.412-18.518-2.533-27.261,0.471c-7.636,2.624-15.01,7.169-19.36,14.148
			c-3.435,5.511-4.867,12.4-3.866,18.861c-1.728-2.348-4.655-3.662-7.515-3.962c-3.761-0.393-7.482,0.895-10.728,2.701
			c-5.903,3.285-10.764,8.366-13.985,14.285c-1.815,3.334-3.086,6.954-3.747,10.692c-0.037,0.211,0.253-0.01,0.275-0.123
			c1.24-6.407,4.273-12.403,8.639-17.247c2.162-2.399,4.655-4.501,7.4-6.204c3.145-1.952,6.731-3.465,10.491-3.431
			c3.605,0.032,7.041,1.687,9.124,4.656c0.058,0.082,0.172,0.052,0.285-0.03c0.2,0.952,0.452,1.892,0.763,2.813
			c0.322,0.954,0.702,1.887,1.132,2.798c0.066,0.139,0.36-0.151,0.309-0.274c-3.115-7.408-2.912-16.07,0.685-23.273
			c3.687-7.384,10.839-12.233,18.384-15.083c8.433-3.185,18-4.409,26.698-1.551c7.731,2.54,14.185,7.951,19.397,14.065
			c5.974,7.009,10.398,15.119,15.583,22.689c0.622,0.908,1.254,1.803,1.919,2.679C140.599,75.963,141.101,75.437,140.98,75.242z"/>
		<path style="fill:#62351D;" d="M203.601,126.618c-3.584-4.882-9.707-6.955-15.236-8.762c-2.887-0.944-5.78-1.861-8.582-3.041
			c-2.711-1.142-5.34-2.471-7.87-3.971c-10.162-6.028-18.657-14.726-24.614-24.914c-3.314-5.667-5.823-11.818-7.341-18.208
			c-0.03-0.128-0.325,0.135-0.297,0.264c2.452,11.608,8.156,22.337,16.133,31.093c3.959,4.346,8.497,8.181,13.436,11.369
			c4.963,3.204,10.298,5.634,15.895,7.494c6.45,2.144,14.908,5.18,19.604,10.41C204.945,128.592,203.796,126.883,203.601,126.618z"
			/>
		<path style="fill:#62351D;" d="M102.675,52.808c-5.713-4.886-12.492-8.887-20.068-9.828c-7.083-0.88-14.485,1.075-19.378,6.466
			c-2.396,2.64-4.046,5.945-4.371,9.517c-0.015,0.161,0.272-0.086,0.288-0.192c0.918-6.494,5.811-11.788,11.902-13.935
			c6.874-2.424,14.499-1.136,20.926,1.98c3.639,1.764,8.812,4.77,11.936,7.325C104.162,54.348,102.923,53.02,102.675,52.808z"/>
		<path style="fill:#62351D;" d="M195.607,130.592c-5.219-3.781-11.324-6.053-17.196-8.587
			c-11.233-4.847-22.278-11.215-29.907-21.014c-4.044-5.194-7.071-11.273-8.194-17.791c-0.015-0.087-0.234,0.101-0.219,0.197
			c1.853,11.881,9.515,21.875,18.987,28.904c4.959,3.68,10.399,6.659,16,9.236c5.927,2.727,12.161,4.891,17.711,8.375
			c5.43,3.408,10.568,8.845,12.521,15.053c0.085,0.269-0.026-0.88-0.072-1.104C204.099,138.332,200.062,133.82,195.607,130.592z"/>
		<path style="fill:#62351D;" d="M195.032,153.67c-1.964-5.933-5.028-11.489-9.019-16.299c-2.261-2.725-4.821-5.176-7.639-7.32
			c-0.163-0.124-1.641-0.938-1.486-0.816c9.75,7.723,17.484,20.457,19.414,32.737c0.543,3.455,0.721,6.973,0.523,10.464
			c-0.02,0.347,0.58-0.122,0.598-0.374C197.853,165.844,196.99,159.584,195.032,153.67z"/>
		<path style="fill:#62351D;" d="M186.123,102.014c-5.059-3.186-9.688-6.821-13.76-11.212c-4.26-4.593-7.842-9.757-11.04-15.132
			c-1.853-3.113-3.592-6.299-5.24-9.525c-0.069-0.135-0.36,0.152-0.303,0.269c5.467,11.246,11.963,22.282,21.602,30.476
			c2.553,2.171,5.287,4.145,8.295,5.638C185.891,102.635,186.321,102.138,186.123,102.014z"/>
		<path style="fill:#62351D;" d="M52.249,75.387c-8.968,0.351-17.179,5.239-22.841,12.036c-6.351,7.623-9.152,17.511-8.924,27.344
			c0.139,5.962,1.306,11.883,3.34,17.484c0.079,0.217,0.527-0.203,0.461-0.403c-3.22-9.717-4.308-20.378-1.601-30.354
			c2.375-8.753,7.859-16.517,15.623-21.292c4.161-2.559,8.898-4.167,13.783-4.485C52.209,75.709,52.43,75.38,52.249,75.387z"/>
		<path style="fill:#62351D;" d="M53.733,63c-3.105-7.299-4.202-15.346-3.055-23.202c0.326-2.229,0.821-4.435,1.503-6.583
			c0.047-0.148-0.177,0.018-0.203,0.093c-2.614,7.606-2.952,15.852-1.003,23.656c0.556,2.226,1.308,4.383,2.25,6.475
			C53.335,63.683,53.824,63.214,53.733,63z"/>
		<path style="fill:#62351D;" d="M144.708,39.365c-4.646-6.02-11.765-9.595-18.944-11.662c-8.005-2.305-16.516-2.827-24.749-1.576
			c-4.549,0.691-9,1.922-13.254,3.672c-0.111,0.046-0.297,0.391-0.087,0.307c7.678-3.04,15.987-4.411,24.236-4.036
			c7.826,0.356,15.833,2.209,22.74,5.984c3.643,1.992,6.977,4.59,9.661,7.769C144.437,39.973,144.842,39.538,144.708,39.365z"/>
		<path style="fill:#62351D;" d="M25.644,147.231c-6.603-9.584-10.152-21.043-10.166-32.68c-0.004-3.272,0.266-6.533,0.837-9.756
			c0.024-0.138-0.247,0.06-0.264,0.149c-2.284,11.555-0.764,23.671,4.183,34.354c1.379,2.979,3.022,5.816,4.928,8.488
			C25.297,147.975,25.802,147.459,25.644,147.231z"/>
		<path style="fill:#62351D;" d="M50.208,61.142c-2.982-3.687-6.918-6.795-11.46-8.295c-4.069-1.344-8.601-1.153-12.426,0.856
			c-1.951,1.025-3.625,2.518-4.792,4.393c-0.097,0.157,0.07,0.127,0.137,0.023c2.258-3.513,6.315-5.402,10.399-5.678
			c4.426-0.3,8.689,1.356,12.246,3.906c2.058,1.476,3.906,3.256,5.618,5.117C50.02,61.56,50.3,61.255,50.208,61.142z"/>
	</g>
	<g>
		<path style="fill:#FFAD7D;" d="M70.198,206.508c0,0,6.232,3.709,15.264,3.709c9.032,0,7.958-0.327,11.72,0.645
			c2.561,0.662,4.02,0.397,5.484-0.107c1.775-0.612,3.011-1.29,7.957-1.075c4.946,0.215,12.231-1.613,15.242-3.011
			c0,0-9.784,16.988-26.558,16.343C82.533,222.367,70.198,206.508,70.198,206.508z"/>
		<path style="fill:#B4715A;" d="M121.163,209.492c-2.471,1.64-5.046,3.072-7.853,4.052c-2.84,0.991-5.819,1.572-8.813,1.829
			c-6.344,0.546-12.775-0.363-18.847-2.218c-1.8-0.55-3.567-1.201-5.31-1.907c-1.723-0.698-3.441-1.498-4.9-2.667
			c-0.06-0.048-0.209,0.125-0.159,0.183c1.07,1.235,2.439,2.012,3.9,2.704c1.549,0.734,3.141,1.368,4.761,1.926
			c3.335,1.149,6.783,1.969,10.277,2.452c6.02,0.832,12.278,0.608,18.095-1.249c3.212-1.025,6.352-2.53,8.901-4.761
			C121.353,209.714,121.465,209.292,121.163,209.492z"/>
		<path style="fill:#B4715A;" d="M72.872,204.569c-1.075,0.138-2.116,0.799-2.894,1.531c-0.821,0.772-1.444,1.698-1.808,2.766
			c-0.032,0.095,0.027,0.14,0.112,0.125c0.102-0.018,0.208-0.145,0.246-0.233c0.376-0.867,0.948-1.657,1.665-2.274
			c0.741-0.637,1.591-1.031,2.491-1.392c0.131-0.053,0.25-0.186,0.294-0.318C73.009,204.682,73.006,204.552,72.872,204.569z"/>
		<path style="fill:#B4715A;" d="M128.257,204.589c-0.729-0.525-1.602-0.843-2.496-0.919c-0.118-0.01-0.347,0.297-0.212,0.319
			c0.778,0.126,1.493,0.458,2.123,0.924c-0.345,0.338-0.676,0.675-1.033,1.002c-0.463,0.424-0.96,0.823-1.457,1.208
			c-0.123,0.095-0.278,0.312-0.236,0.478c0.041,0.16,0.224,0.138,0.338,0.057c0.284-0.2,0.56-0.41,0.828-0.631
			c0.281-0.232,0.533-0.493,0.766-0.725c0.377-0.377,0.722-0.779,1.026-1.214c0.315,0.261,0.602,0.558,0.845,0.887
			c0.254,0.343,0.458,0.724,0.69,1.081c0.129,0.198,0.445-0.203,0.41-0.36C129.653,205.826,128.965,205.1,128.257,204.589z"/>
	</g>
	<g>
		<defs>
			<path id="SVGID_1_" d="M80.17,167.587c0,0,0.152-22.717-20.735-23.48c-12.655,0.153-16.314,7.623-16.466,10.673
				C42.816,157.83,48.762,173.839,80.17,167.587z"/>
		</defs>
		<clipPath id="SVGID_00000170266470460770474560000010839364878417103009_">
			<use xlink:href="#SVGID_1_"  style="overflow:visible;"/>
		</clipPath>
		<g style="clip-path:url(#SVGID_00000170266470460770474560000010839364878417103009_);">
			<g>
				<g>
					<path style="fill:#3A1300;" d="M52.494,155.002c0.729,6.162,6.314,10.566,12.476,9.837c6.161-0.729,10.566-6.314,9.837-12.476
						c-0.729-6.161-6.314-10.565-12.476-9.837C56.169,143.255,51.765,148.84,52.494,155.002z"/>
					<path style="fill:#603B28;" d="M53.996,154.824c0.631,5.332,5.464,9.142,10.795,8.512c5.332-0.631,9.142-5.464,8.512-10.795
						c-0.63-5.332-5.464-9.143-10.795-8.512C57.177,144.659,53.366,149.492,53.996,154.824z"/>
					<path d="M57.971,154.354c0.371,3.136,3.214,5.378,6.35,5.007c3.136-0.371,5.378-3.214,5.007-6.35
						c-0.371-3.136-3.214-5.378-6.35-5.007C59.842,148.374,57.6,151.218,57.971,154.354z"/>
				</g>
				<path style="fill:#FFFFFF;" d="M65.631,149.176c0.129,1.089,1.116,1.867,2.204,1.738c1.089-0.129,1.866-1.116,1.738-2.204
					c-0.129-1.088-1.115-1.866-2.204-1.738C66.28,147.1,65.502,148.087,65.631,149.176z"/>
				<path style="fill:#FFFFFF;" d="M68.426,153.269c0.076,0.645,0.661,1.106,1.306,1.03c0.645-0.076,1.106-0.661,1.03-1.306
					c-0.076-0.645-0.661-1.106-1.306-1.03C68.811,152.039,68.35,152.624,68.426,153.269z"/>
				<path style="fill:#543C2B;" d="M56.548,159.19c2.65,4.044,9.932,4.995,13.461,0.945c0.71-0.814,1.833-2.62,0.915-3.64
					c-0.104-0.116-0.45-0.256-0.549-0.046c-0.548,1.159-1.483,2.145-2.63,2.827c-0.995,0.593-2.156,0.947-3.327,1.017
					c-1.242,0.074-2.428-0.251-3.537-0.729c-2.377-1.023-3.4-3.266-4.015-5.751c-0.06-0.241-1.333-0.485-1.397-0.121
					C55.131,155.644,55.674,157.857,56.548,159.19z"/>
			</g>
		</g>
	</g>
	<g>
		<defs>
			<path id="SVGID_00000026148823982327237290000015743817963332697228_" d="M116.459,167.587c0,0-0.153-22.717,20.735-23.48
				c12.655,0.153,16.314,7.623,16.466,10.673S147.867,173.839,116.459,167.587z"/>
		</defs>
		<clipPath id="SVGID_00000136381140822829384240000009520989253427633317_">
			<use xlink:href="#SVGID_00000026148823982327237290000015743817963332697228_"  style="overflow:visible;"/>
		</clipPath>
		<g style="clip-path:url(#SVGID_00000136381140822829384240000009520989253427633317_);">
			<g>
				<g>
					<path style="fill:#3A1300;" d="M144.135,155.002c-0.729,6.162-6.314,10.566-12.476,9.837
						c-6.161-0.729-10.566-6.314-9.837-12.476c0.729-6.161,6.314-10.565,12.476-9.837
						C140.459,143.255,144.863,148.84,144.135,155.002z"/>
					<path style="fill:#603B28;" d="M142.632,154.824c-0.631,5.332-5.464,9.142-10.795,8.512c-5.332-0.631-9.143-5.464-8.512-10.795
						c0.631-5.332,5.464-9.143,10.795-8.512C139.452,144.659,143.262,149.492,142.632,154.824z"/>
					<path d="M138.657,154.354c-0.371,3.136-3.214,5.378-6.35,5.007c-3.136-0.371-5.378-3.214-5.007-6.35
						c0.371-3.136,3.214-5.378,6.35-5.007C136.786,148.374,139.028,151.218,138.657,154.354z"/>
				</g>
				<path style="fill:#FFFFFF;" d="M130.998,149.176c-0.129,1.089-1.115,1.867-2.204,1.738c-1.089-0.129-1.866-1.116-1.738-2.204
					c0.129-1.088,1.115-1.866,2.204-1.738C130.348,147.1,131.126,148.087,130.998,149.176z"/>
				<path style="fill:#FFFFFF;" d="M128.202,153.269c-0.076,0.645-0.661,1.106-1.306,1.03c-0.645-0.076-1.106-0.661-1.03-1.306
					c0.076-0.645,0.661-1.106,1.306-1.03C127.817,152.039,128.278,152.624,128.202,153.269z"/>
				<path style="fill:#543C2B;" d="M141.16,153.693c-0.063-0.365-1.337-0.12-1.397,0.121c-0.615,2.485-1.638,4.728-4.015,5.751
					c-1.11,0.477-2.296,0.802-3.538,0.729c-1.171-0.069-2.331-0.424-3.327-1.017c-1.147-0.683-2.082-1.669-2.63-2.827
					c-0.099-0.211-0.446-0.07-0.549,0.046c-0.917,1.02,0.206,2.826,0.915,3.64c3.528,4.049,10.811,3.099,13.461-0.945
					C140.954,157.857,141.498,155.644,141.16,153.693z"/>
			</g>
		</g>
	</g>
	<g>
		<path style="fill:#8E5B3A;" d="M187.291,110.124c13.87,0.968,20.644-6.129,20.644-6.129s-12.257,4.516-22.902-2.258
			c0.402-8.046-0.476-16.869-2.657-25.57c0.184,4.134,0.107,8.549-0.246,13.312c-2.581-8.709-12.258-16.451-12.258-16.451
			s2.581,8.709,7.742,14.838c-11.29-6.774-14.838-12.903-24.515-27.741c0.968,18.709,20.644,40.643,42.579,47.74
			c-14.515,1.613-22.902-8.064-22.902-8.064s5.484,9.354,14.193,14.838c-36.45-13.548-51.61-62.9-51.61-62.9s0.322,5.161,0,9.677
			c-6.774-16.128-20.644-29.999-38.063-30.966c22.902-8.064,46.449,6.774,46.449,6.774c-26.128-35.16-85.157-2.903-89.028,11.29
			c-0.353-12.953,5.185-21.603,12.357-27.371c-5.417,2.756-10.497,6.302-15.014,10.746c-1.687,0.378-3.632,1.117-5.744,2.171
			c1.074,4.87-0.779,14.614,1.304,22.949c-7.323-8.004-14.308-9.465-20.075-8.311c-5.136,5.441-10.041,11.99-13.912,19.386
			c7.376-10.356,18.574-18.394,33.288-7.135c-10.369-3.703-26.417,12.591-28.145,34.564c0,0,16.047-37.279,33.082-23.454
			c0,0-24.441-0.494-31.601,30.86c-2.469,11.11,0,26.416,4.444,36.539c-5.925-4.938-13.085-24.688-8.147-38.02
			c-7.9,7.16-2.963,29.379,1.234,37.526s-14.072-6.172-12.344-34.811c-0.083-0.038-0.168-0.071-0.252-0.108
			c-0.462,21.098,4.146,43.476,24.995,57.91c0,0-0.342-4.111-1.173-15.544c-8.246-45.665,12.669-63.99,22.272-66.733
			c7.033-2.009,10.746,0.835,12.372,2.791c0.051-0.009,0.097-0.022,0.148-0.031c-3.465-7.813-9.843-26.91,7.955-31.689
			c21.88-5.875,39.125,19.266,48.936,38.782c0.483,0.594,0.961,1.218,1.435,1.885c7.096,9.999,22.257,32.257,46.127,43.224
			c20.967,11.612,29.353,33.869,23.225,50.965c5.161-7.742,5.806-13.548,5.806-13.548s0.551,1.818-0.009,4.617
			c-0.56,2.799,13.879-13.649,9.041-32.035C211.161,134.639,209.87,124.639,187.291,110.124z M202.129,157.863
			c-3.226-12.58-9.677-23.225-29.676-31.289c12.257,6.129,21.612,20.644,22.257,39.353c-6.129-28.063-28.386-37.74-38.063-42.256
			c-9.677-4.516-21.612-16.773-34.192-40.321C107.94,55.933,91.489,46.256,71.167,47.223c12.257-8.064,35.805,7.419,39.998,12.257
			c-0.583-1.061-1.184-2.062-1.799-3.008C98.767,40.161,84.07,40.45,84.07,40.45c25.483-11.612,46.449,14.515,57.739,38.708
			c8.709,18.386,16.773,26.45,35.16,39.353c-19.999-6.774-27.741-19.354-37.74-37.418c1.29,17.741,9.354,33.547,29.353,39.675
			C200.839,131.09,203.742,141.735,202.129,157.863z"/>
	</g>
	<path style="fill:#62351D;" d="M35.811,59.398c0,0-30.875,21.968-23.947,61.717c0,0-5.258-14.648-1.078-29.922
		c-3.598,7.038-3.361,21.297-3.564,20.695C7.019,111.285-2.512,74.355,35.811,59.398z"/>
	<path style="fill:#62351D;" d="M104.069,41.095c0,0,17.419,2.581,31.289,30.644c0,0-2.581-3.871-9.354-9.354
		c-6.774-5.484,7.742,9.354-0.645,4.193c-8.387-5.161-0.645-0.323,1.613,9.999c-8.709-12.257-15.207-24.81-28.063-34.192
		c10.967,6.129,9.986,4.715,7.674,2.179C104.27,42.028,116.547,46.948,104.069,41.095z"/>
	<path style="fill:#62351D;" d="M68.264,30.128c0,0,34.837-23.225,67.739-3.548C130.197,19.16,96.005,3.677,68.264,30.128z"/>
	<path style="fill:#62351D;" d="M126.282,32.166c0,0,16.835,3.157,24.464,28.409c3.42,11.837,5.787,17.887,9.733,22.622
		c0,0-7.102-7.102-10.259-15.52c-3.157-8.417,1.315,9.47-2.894,0.789c-4.209-8.681-4.735-1.578,1.841,8.944
		c-7.365-9.47-8.418-18.15-12.626-27.62c-4.209-9.47-11.311-12.1-11.311-12.1s0.789-1.315,7.102,2.631
		C138.645,44.266,136.541,36.901,126.282,32.166z"/>
	<path style="fill:#62351D;" d="M149.535,37.464c0,0,17.314,9.462,29.192,40.265C177.116,56.992,163.627,40.886,149.535,37.464z"/>
	<path style="fill:#E2AB86;" d="M112.009,219.814c-3.957,1.53-8.069,2.431-12.326,2.37c-4.218-0.061-8.401-1.012-12.26-2.704
		c-2.221-0.974-4.348-2.209-6.259-3.703c-0.058-0.046-0.21,0.13-0.154,0.177c6.534,5.615,15.419,7.901,23.897,6.511
		c2.416-0.396,4.788-1.092,6.982-2.187C112.039,220.202,112.338,219.686,112.009,219.814z"/>
	<g>
		<path style="opacity:0.55;fill:#FFAD7D;" d="M88.553,215.83c0,0,5.326,2.219,12.278,1.775c3.107-0.296,0.444,3.994-6.953,2.663
			C86.482,218.937,83.819,214.203,88.553,215.83z"/>
		<path style="opacity:0.55;fill:#FFAD7D;" d="M106.15,218.214c0.089,0.472-0.56,0.99-1.449,1.157
			c-0.889,0.167-1.682-0.08-1.771-0.552s0.56-0.99,1.45-1.157C105.268,217.495,106.061,217.742,106.15,218.214z"/>
	</g>
	<g>
		
			<radialGradient id="SVGID_00000106108449388523497460000001666154227627672727_" cx="1027.3978" cy="184.5192" r="21.3391" gradientTransform="matrix(-1 0 0 1 1085.4825 0)" gradientUnits="userSpaceOnUse">
			<stop  offset="0" style="stop-color:#F37422"/>
			<stop  offset="1" style="stop-color:#FFFFFF"/>
		</radialGradient>
		<path style="opacity:0.51;fill:url(#SVGID_00000106108449388523497460000001666154227627672727_);" d="M47.618,166.536
			c1.044-0.416,2.125-0.708,3.223-0.888c-0.627,0.247-1.246,0.518-1.854,0.818c-0.324,0.159-0.04,0.642,0.283,0.484
			c1.131-0.557,2.3-1.03,3.504-1.404c0.12-0.037,0.241-0.069,0.362-0.104c0.563-0.009,1.128,0.008,1.692,0.059
			c0.304,0.027,0.346-0.366,0.137-0.509c3.826-0.767,7.811-0.51,11.514,0.797c4.047,1.428,7.693,4.059,10.291,7.478
			c2.466,3.245,4.005,7.226,3.95,11.331c-0.06,4.534-2.132,8.709-5.269,11.915c-3.357,3.431-7.657,5.788-12.286,6.997
			c-4.365,1.141-9.051,1.322-13.45,0.256c-4.208-1.02-8.146-3.267-10.74-6.792c-2.825-3.838-3.935-8.784-3.398-13.484
			c0.551-4.827,2.741-9.537,6.167-12.992C43.417,168.813,45.407,167.418,47.618,166.536z"/>
		<path style="opacity:0.49;fill:#FDD1AB;" d="M44.367,172.822c-0.541,0.541-0.723,1.237-0.407,1.554
			c0.317,0.317,1.013,0.135,1.554-0.407c0.541-0.541,0.723-1.237,0.406-1.554C45.604,172.099,44.908,172.281,44.367,172.822z"/>
	</g>
	<g>
		
			<radialGradient id="SVGID_00000145765718325745230650000016124568646899546510_" cx="887.788" cy="184.5192" r="21.3391" gradientTransform="matrix(1 0 0 1 -748.4168 0)" gradientUnits="userSpaceOnUse">
			<stop  offset="0" style="stop-color:#F37422"/>
			<stop  offset="1" style="stop-color:#FFFFFF"/>
		</radialGradient>
		<path style="opacity:0.51;fill:url(#SVGID_00000145765718325745230650000016124568646899546510_);" d="M149.838,166.536
			c-1.044-0.416-2.124-0.708-3.223-0.888c0.627,0.247,1.247,0.518,1.854,0.818c0.324,0.159,0.04,0.642-0.283,0.484
			c-1.131-0.557-2.3-1.03-3.504-1.404c-0.12-0.037-0.241-0.069-0.362-0.104c-0.563-0.009-1.128,0.008-1.692,0.059
			c-0.304,0.027-0.345-0.366-0.137-0.509c-3.826-0.767-7.811-0.51-11.514,0.797c-4.047,1.428-7.693,4.059-10.291,7.478
			c-2.466,3.245-4.005,7.226-3.95,11.331c0.06,4.534,2.132,8.709,5.269,11.915c3.357,3.431,7.657,5.788,12.286,6.997
			c4.365,1.141,9.051,1.322,13.45,0.256c4.208-1.02,8.146-3.267,10.74-6.792c2.825-3.838,3.935-8.784,3.398-13.484
			c-0.551-4.827-2.741-9.537-6.167-12.992C154.039,168.813,152.049,167.418,149.838,166.536z"/>
		<path style="opacity:0.49;fill:#FDD1AB;" d="M153.089,172.822c0.541,0.541,0.723,1.237,0.407,1.554
			c-0.317,0.317-1.013,0.135-1.554-0.407s-0.723-1.237-0.407-1.554C151.852,172.099,152.548,172.281,153.089,172.822z"/>
	</g>
	<path style="fill:#FDD4B5;" d="M30.914,161.635c0,0,2.332,19.12,7.694,33.343c3.964,9.56,16.382,22.898,25.476,28.96
		c-13.057-6.995-24.077-16.603-28.274-31.059C31.614,178.424,30.914,161.635,30.914,161.635z"/>
</g>
</svg>
